<?xml version="1.0" encoding="UTF-8"?>
<!DOCTYPE svg PUBLIC "-//W3C//DTD SVG 1.1//EN" "http://www.w3.org/Graphics/SVG/1.1/DTD/svg11.dtd">
<svg width="222mm" height="145mm" viewBox="0 0 22200 14500" version="1.1" xmlns="http://www.w3.org/2000/svg" xmlns:xlink="http://www.w3.org/1999/xlink" stroke-width="28.222" stroke-linejoin="round" xml:space="preserve">
 <path fill="rgb(28,28,28)" stroke="none" d="M 11070,14463 L -13,14463 -13,-13 22152,-13 22152,14463 11070,14463 Z"/>
 <path fill="none" stroke="rgb(179,179,179)" stroke-linejoin="round" d="M 11407,12969 L 1246,12969 1246,475 21568,475 21568,12969 11407,12969 Z"/>
 <path fill="none" stroke="rgb(179,179,179)" stroke-linejoin="round" d="M 21568,12968 L 1246,12968"/>
 <path fill="none" stroke="rgb(179,179,179)" stroke-linejoin="round" d="M 21568,11183 L 1246,11183"/>
 <path fill="none" stroke="rgb(179,179,179)" stroke-linejoin="round" d="M 21568,9398 L 1246,9398"/>
 <path fill="none" stroke="rgb(179,179,179)" stroke-linejoin="round" d="M 21568,7613 L 1246,7613"/>
 <path fill="none" stroke="rgb(179,179,179)" stroke-linejoin="round" d="M 21568,5829 L 1246,5829"/>
 <path fill="none" stroke="rgb(179,179,179)" stroke-linejoin="round" d="M 21568,4044 L 1246,4044"/>
 <path fill="none" stroke="rgb(179,179,179)" stroke-linejoin="round" d="M 21568,2259 L 1246,2259"/>
 <path fill="none" stroke="rgb(179,179,179)" stroke-linejoin="round" d="M 21568,474 L 1246,474"/>
 <path fill="none" stroke="rgb(179,179,179)" stroke-linejoin="round" d="M 1246,13118 L 1246,12968"/>
 <path fill="none" stroke="rgb(179,179,179)" stroke-linejoin="round" d="M 1246,13118 L 1246,12968"/>
 <path fill="none" stroke="rgb(179,179,179)" stroke-linejoin="round" d="M 1861,13118 L 1861,12968"/>
 <path fill="none" stroke="rgb(179,179,179)" stroke-linejoin="round" d="M 1861,13118 L 1861,12968"/>
 <path fill="none" stroke="rgb(179,179,179)" stroke-linejoin="round" d="M 2477,13118 L 2477,12968"/>
 <path fill="none" stroke="rgb(179,179,179)" stroke-linejoin="round" d="M 2477,13118 L 2477,12968"/>
 <path fill="none" stroke="rgb(179,179,179)" stroke-linejoin="round" d="M 3093,13118 L 3093,12968"/>
 <path fill="none" stroke="rgb(179,179,179)" stroke-linejoin="round" d="M 3093,13118 L 3093,12968"/>
 <path fill="none" stroke="rgb(179,179,179)" stroke-linejoin="round" d="M 3709,13118 L 3709,12968"/>
 <path fill="none" stroke="rgb(179,179,179)" stroke-linejoin="round" d="M 3709,13118 L 3709,12968"/>
 <path fill="none" stroke="rgb(179,179,179)" stroke-linejoin="round" d="M 4325,13118 L 4325,12968"/>
 <path fill="none" stroke="rgb(179,179,179)" stroke-linejoin="round" d="M 4325,13118 L 4325,12968"/>
 <path fill="none" stroke="rgb(179,179,179)" stroke-linejoin="round" d="M 4941,13118 L 4941,12968"/>
 <path fill="none" stroke="rgb(179,179,179)" stroke-linejoin="round" d="M 4941,13118 L 4941,12968"/>
 <path fill="none" stroke="rgb(179,179,179)" stroke-linejoin="round" d="M 5556,13118 L 5556,12968"/>
 <path fill="none" stroke="rgb(179,179,179)" stroke-linejoin="round" d="M 5556,13118 L 5556,12968"/>
 <path fill="none" stroke="rgb(179,179,179)" stroke-linejoin="round" d="M 6172,13118 L 6172,12968"/>
 <path fill="none" stroke="rgb(179,179,179)" stroke-linejoin="round" d="M 6172,13118 L 6172,12968"/>
 <path fill="none" stroke="rgb(179,179,179)" stroke-linejoin="round" d="M 6788,13118 L 6788,12968"/>
 <path fill="none" stroke="rgb(179,179,179)" stroke-linejoin="round" d="M 6788,13118 L 6788,12968"/>
 <path fill="none" stroke="rgb(179,179,179)" stroke-linejoin="round" d="M 7404,13118 L 7404,12968"/>
 <path fill="none" stroke="rgb(179,179,179)" stroke-linejoin="round" d="M 7404,13118 L 7404,12968"/>
 <path fill="none" stroke="rgb(179,179,179)" stroke-linejoin="round" d="M 8020,13118 L 8020,12968"/>
 <path fill="none" stroke="rgb(179,179,179)" stroke-linejoin="round" d="M 8020,13118 L 8020,12968"/>
 <path fill="none" stroke="rgb(179,179,179)" stroke-linejoin="round" d="M 8636,13118 L 8636,12968"/>
 <path fill="none" stroke="rgb(179,179,179)" stroke-linejoin="round" d="M 8636,13118 L 8636,12968"/>
 <path fill="none" stroke="rgb(179,179,179)" stroke-linejoin="round" d="M 9252,13118 L 9252,12968"/>
 <path fill="none" stroke="rgb(179,179,179)" stroke-linejoin="round" d="M 9252,13118 L 9252,12968"/>
 <path fill="none" stroke="rgb(179,179,179)" stroke-linejoin="round" d="M 9867,13118 L 9867,12968"/>
 <path fill="none" stroke="rgb(179,179,179)" stroke-linejoin="round" d="M 9867,13118 L 9867,12968"/>
 <path fill="none" stroke="rgb(179,179,179)" stroke-linejoin="round" d="M 10483,13118 L 10483,12968"/>
 <path fill="none" stroke="rgb(179,179,179)" stroke-linejoin="round" d="M 10483,13118 L 10483,12968"/>
 <path fill="none" stroke="rgb(179,179,179)" stroke-linejoin="round" d="M 11098,13118 L 11098,12968"/>
 <path fill="none" stroke="rgb(179,179,179)" stroke-linejoin="round" d="M 11098,13118 L 11098,12968"/>
 <path fill="none" stroke="rgb(179,179,179)" stroke-linejoin="round" d="M 11714,13118 L 11714,12968"/>
 <path fill="none" stroke="rgb(179,179,179)" stroke-linejoin="round" d="M 11714,13118 L 11714,12968"/>
 <path fill="none" stroke="rgb(179,179,179)" stroke-linejoin="round" d="M 12330,13118 L 12330,12968"/>
 <path fill="none" stroke="rgb(179,179,179)" stroke-linejoin="round" d="M 12330,13118 L 12330,12968"/>
 <path fill="none" stroke="rgb(179,179,179)" stroke-linejoin="round" d="M 12946,13118 L 12946,12968"/>
 <path fill="none" stroke="rgb(179,179,179)" stroke-linejoin="round" d="M 12946,13118 L 12946,12968"/>
 <path fill="none" stroke="rgb(179,179,179)" stroke-linejoin="round" d="M 13561,13118 L 13561,12968"/>
 <path fill="none" stroke="rgb(179,179,179)" stroke-linejoin="round" d="M 13561,13118 L 13561,12968"/>
 <path fill="none" stroke="rgb(179,179,179)" stroke-linejoin="round" d="M 14177,13118 L 14177,12968"/>
 <path fill="none" stroke="rgb(179,179,179)" stroke-linejoin="round" d="M 14177,13118 L 14177,12968"/>
 <path fill="none" stroke="rgb(179,179,179)" stroke-linejoin="round" d="M 14793,13118 L 14793,12968"/>
 <path fill="none" stroke="rgb(179,179,179)" stroke-linejoin="round" d="M 14793,13118 L 14793,12968"/>
 <path fill="none" stroke="rgb(179,179,179)" stroke-linejoin="round" d="M 15409,13118 L 15409,12968"/>
 <path fill="none" stroke="rgb(179,179,179)" stroke-linejoin="round" d="M 15409,13118 L 15409,12968"/>
 <path fill="none" stroke="rgb(179,179,179)" stroke-linejoin="round" d="M 16025,13118 L 16025,12968"/>
 <path fill="none" stroke="rgb(179,179,179)" stroke-linejoin="round" d="M 16025,13118 L 16025,12968"/>
 <path fill="none" stroke="rgb(179,179,179)" stroke-linejoin="round" d="M 16641,13118 L 16641,12968"/>
 <path fill="none" stroke="rgb(179,179,179)" stroke-linejoin="round" d="M 16641,13118 L 16641,12968"/>
 <path fill="none" stroke="rgb(179,179,179)" stroke-linejoin="round" d="M 17257,13118 L 17257,12968"/>
 <path fill="none" stroke="rgb(179,179,179)" stroke-linejoin="round" d="M 17257,13118 L 17257,12968"/>
 <path fill="none" stroke="rgb(179,179,179)" stroke-linejoin="round" d="M 17872,13118 L 17872,12968"/>
 <path fill="none" stroke="rgb(179,179,179)" stroke-linejoin="round" d="M 17872,13118 L 17872,12968"/>
 <path fill="none" stroke="rgb(179,179,179)" stroke-linejoin="round" d="M 18488,13118 L 18488,12968"/>
 <path fill="none" stroke="rgb(179,179,179)" stroke-linejoin="round" d="M 18488,13118 L 18488,12968"/>
 <path fill="none" stroke="rgb(179,179,179)" stroke-linejoin="round" d="M 19104,13118 L 19104,12968"/>
 <path fill="none" stroke="rgb(179,179,179)" stroke-linejoin="round" d="M 19104,13118 L 19104,12968"/>
 <path fill="none" stroke="rgb(179,179,179)" stroke-linejoin="round" d="M 19720,13118 L 19720,12968"/>
 <path fill="none" stroke="rgb(179,179,179)" stroke-linejoin="round" d="M 19720,13118 L 19720,12968"/>
 <path fill="none" stroke="rgb(179,179,179)" stroke-linejoin="round" d="M 20336,13118 L 20336,12968"/>
 <path fill="none" stroke="rgb(179,179,179)" stroke-linejoin="round" d="M 20336,13118 L 20336,12968"/>
 <path fill="none" stroke="rgb(179,179,179)" stroke-linejoin="round" d="M 20952,13118 L 20952,12968"/>
 <path fill="none" stroke="rgb(179,179,179)" stroke-linejoin="round" d="M 20952,13118 L 20952,12968"/>
 <path fill="none" stroke="rgb(179,179,179)" stroke-linejoin="round" d="M 21568,13118 L 21568,12968"/>
 <path fill="none" stroke="rgb(179,179,179)" stroke-linejoin="round" d="M 21568,13118 L 21568,12968"/>
 <path fill="none" stroke="rgb(179,179,179)" stroke-linejoin="round" d="M 1246,12968 L 21568,12968"/>
 <path fill="none" stroke="rgb(179,179,179)" stroke-linejoin="round" d="M 1096,12968 L 1246,12968"/>
 <path fill="none" stroke="rgb(179,179,179)" stroke-linejoin="round" d="M 1096,12968 L 1246,12968"/>
 <path fill="none" stroke="rgb(179,179,179)" stroke-linejoin="round" d="M 1096,11183 L 1246,11183"/>
 <path fill="none" stroke="rgb(179,179,179)" stroke-linejoin="round" d="M 1096,11183 L 1246,11183"/>
 <path fill="none" stroke="rgb(179,179,179)" stroke-linejoin="round" d="M 1096,9398 L 1246,9398"/>
 <path fill="none" stroke="rgb(179,179,179)" stroke-linejoin="round" d="M 1096,9398 L 1246,9398"/>
 <path fill="none" stroke="rgb(179,179,179)" stroke-linejoin="round" d="M 1096,7613 L 1246,7613"/>
 <path fill="none" stroke="rgb(179,179,179)" stroke-linejoin="round" d="M 1096,7613 L 1246,7613"/>
 <path fill="none" stroke="rgb(179,179,179)" stroke-linejoin="round" d="M 1096,5829 L 1246,5829"/>
 <path fill="none" stroke="rgb(179,179,179)" stroke-linejoin="round" d="M 1096,5829 L 1246,5829"/>
 <path fill="none" stroke="rgb(179,179,179)" stroke-linejoin="round" d="M 1096,4044 L 1246,4044"/>
 <path fill="none" stroke="rgb(179,179,179)" stroke-linejoin="round" d="M 1096,4044 L 1246,4044"/>
 <path fill="none" stroke="rgb(179,179,179)" stroke-linejoin="round" d="M 1096,2259 L 1246,2259"/>
 <path fill="none" stroke="rgb(179,179,179)" stroke-linejoin="round" d="M 1096,2259 L 1246,2259"/>
 <path fill="none" stroke="rgb(179,179,179)" stroke-linejoin="round" d="M 1096,474 L 1246,474"/>
 <path fill="none" stroke="rgb(179,179,179)" stroke-linejoin="round" d="M 1096,474 L 1246,474"/>
 <path fill="none" stroke="rgb(179,179,179)" stroke-linejoin="round" d="M 1246,12968 L 1246,474"/>
 <defs>
  <radialGradient id="Gradient_3" gradientUnits="userSpaceOnUse" cx="14659.18" cy="6032.49" r="11404.045">
   <stop offset="0" stop-color="rgb(255,255,0)"/>
   <stop offset="0.67" stop-color="rgb(255,191,0)"/>
  </radialGradient>
 </defs>
 <path fill="url(#Gradient_3)" stroke="rgb(0,0,0)" stroke-width="60" stroke-linejoin="round" d="M 1246,5829 L 1861,7256 2477,8327 3093,9398 3709,5472 4325,5472 4941,5115 5556,10469 6172,7970 6788,7970 7404,2616 8020,6186 8636,9755 9252,7970 9867,10826 10483,11183 11098,8327 11714,7256 12330,7970 12946,2973 13561,6186 14177,7970 14793,7970 15409,7970 16025,7613 16641,9755 17257,9041 17872,6543 18488,10469 19104,6543 19720,7613 20336,12254 20952,5829 21568,3687 21568,12968 1246,12968 1246,5829 Z"/>
 <path fill="none" stroke="rgb(114,159,207)" stroke-linejoin="round" d="M 1246,6736 L 1451,6830 1656,6902 1861,6961 2067,7011 2272,7055 2477,7093 2682,7127 2888,7158 3093,7186 3298,7212 3504,7235 3709,7258 3914,7279 4119,7298 4325,7317 4530,7335 4735,7351 4941,7367 5146,7382 5351,7397 5556,7410 5762,7424 5967,7436 6172,7449 6378,7460 6583,7472 6788,7483 6993,7493 7199,7504 7404,7514 7609,7523 7815,7533 8020,7542 8225,7551 8430,7559 8636,7568 8841,7576 9046,7584 9252,7592 9457,7600 9662,7607 9867,7614 10073,7621 10278,7628 10483,7635 10689,7642 10894,7649 11098,7655 11303,7661 11509,7667 11714,7674 11919,7679 12124,7685 12330,7691 12535,7697 12740,7702 12946,7708 13151,7713 13356,7718 13561,7724 13767,7729 13972,7734 14177,7739 14383,7744 14588,7748 14793,7753 14998,7758 15204,7762 15409,7767 15614,7771 15820,7776 16025,7780 16230,7784 16435,7789 16641,7793 16846,7797 17051,7801 17257,7805 17462,7809 17667,7813 17872,7817 18078,7821 18283,7825 18488,7828 18694,7832 18899,7836 19104,7839 19309,7843 19515,7846 19720,7850 19925,7853 20131,7857 20336,7860 20541,7864 20746,7867 20952,7870 21157,7874 21362,7877 21568,7880"/>
 <text class="SVGTextShape" transform="rotate(-44.9 655 14116)"><tspan class="TextParagraph"><tspan class="TextPosition" x="655" y="14116"><tspan font-family="Liberation Sans, sans-serif" font-size="353px" font-weight="400" fill="rgb(255,255,255)" stroke="none" style="white-space: pre">1.84.1</tspan></tspan></tspan></text>
 <text class="SVGTextShape" transform="rotate(-44.9 1270 14116)"><tspan class="TextParagraph"><tspan class="TextPosition" x="1270" y="14116"><tspan font-family="Liberation Sans, sans-serif" font-size="353px" font-weight="400" fill="rgb(255,255,255)" stroke="none" style="white-space: pre">1.80.1</tspan></tspan></tspan></text>
 <text class="SVGTextShape" transform="rotate(-44.9 1886 14116)"><tspan class="TextParagraph"><tspan class="TextPosition" x="1886" y="14116"><tspan font-family="Liberation Sans, sans-serif" font-size="353px" font-weight="400" fill="rgb(255,255,255)" stroke="none" style="white-space: pre">1.77.2</tspan></tspan></tspan></text>
 <text class="SVGTextShape" transform="rotate(-44.9 2502 14116)"><tspan class="TextParagraph"><tspan class="TextPosition" x="2502" y="14116"><tspan font-family="Liberation Sans, sans-serif" font-size="353px" font-weight="400" fill="rgb(255,255,255)" stroke="none" style="white-space: pre">1.77.1</tspan></tspan></tspan></text>
 <text class="SVGTextShape" transform="rotate(-44.9 3118 14116)"><tspan class="TextParagraph"><tspan class="TextPosition" x="3118" y="14116"><tspan font-family="Liberation Sans, sans-serif" font-size="353px" font-weight="400" fill="rgb(255,255,255)" stroke="none" style="white-space: pre">1.74.1</tspan></tspan></tspan></text>
 <text class="SVGTextShape" transform="rotate(-44.9 3734 14116)"><tspan class="TextParagraph"><tspan class="TextPosition" x="3734" y="14116"><tspan font-family="Liberation Sans, sans-serif" font-size="353px" font-weight="400" fill="rgb(255,255,255)" stroke="none" style="white-space: pre">1.72.1</tspan></tspan></tspan></text>
 <text class="SVGTextShape" transform="rotate(-44.9 4350 14116)"><tspan class="TextParagraph"><tspan class="TextPosition" x="4350" y="14116"><tspan font-family="Liberation Sans, sans-serif" font-size="353px" font-weight="400" fill="rgb(255,255,255)" stroke="none" style="white-space: pre">1.71.1</tspan></tspan></tspan></text>
 <text class="SVGTextShape" transform="rotate(-44.9 4965 14116)"><tspan class="TextParagraph"><tspan class="TextPosition" x="4965" y="14116"><tspan font-family="Liberation Sans, sans-serif" font-size="353px" font-weight="400" fill="rgb(255,255,255)" stroke="none" style="white-space: pre">1.68.2</tspan></tspan></tspan></text>
 <text class="SVGTextShape" transform="rotate(-44.9 5581 14116)"><tspan class="TextParagraph"><tspan class="TextPosition" x="5581" y="14116"><tspan font-family="Liberation Sans, sans-serif" font-size="353px" font-weight="400" fill="rgb(255,255,255)" stroke="none" style="white-space: pre">1.68.1</tspan></tspan></tspan></text>
 <text class="SVGTextShape" transform="rotate(-44.9 6197 14116)"><tspan class="TextParagraph"><tspan class="TextPosition" x="6197" y="14116"><tspan font-family="Liberation Sans, sans-serif" font-size="353px" font-weight="400" fill="rgb(255,255,255)" stroke="none" style="white-space: pre">1.67.1</tspan></tspan></tspan></text>
 <text class="SVGTextShape" transform="rotate(-44.9 6813 14116)"><tspan class="TextParagraph"><tspan class="TextPosition" x="6813" y="14116"><tspan font-family="Liberation Sans, sans-serif" font-size="353px" font-weight="400" fill="rgb(255,255,255)" stroke="none" style="white-space: pre">1.66.1</tspan></tspan></tspan></text>
 <text class="SVGTextShape" transform="rotate(-44.9 7429 14116)"><tspan class="TextParagraph"><tspan class="TextPosition" x="7429" y="14116"><tspan font-family="Liberation Sans, sans-serif" font-size="353px" font-weight="400" fill="rgb(255,255,255)" stroke="none" style="white-space: pre">1.62.1</tspan></tspan></tspan></text>
 <text class="SVGTextShape" transform="rotate(-44.9 8045 14116)"><tspan class="TextParagraph"><tspan class="TextPosition" x="8045" y="14116"><tspan font-family="Liberation Sans, sans-serif" font-size="353px" font-weight="400" fill="rgb(255,255,255)" stroke="none" style="white-space: pre">1.58.1</tspan></tspan></tspan></text>
 <text class="SVGTextShape" transform="rotate(-44.9 8661 14116)"><tspan class="TextParagraph"><tspan class="TextPosition" x="8661" y="14116"><tspan font-family="Liberation Sans, sans-serif" font-size="353px" font-weight="400" fill="rgb(255,255,255)" stroke="none" style="white-space: pre">1.56.1</tspan></tspan></tspan></text>
 <text class="SVGTextShape" transform="rotate(-44.9 9276 14116)"><tspan class="TextParagraph"><tspan class="TextPosition" x="9276" y="14116"><tspan font-family="Liberation Sans, sans-serif" font-size="353px" font-weight="400" fill="rgb(255,255,255)" stroke="none" style="white-space: pre">1.52.1</tspan></tspan></tspan></text>
 <text class="SVGTextShape" transform="rotate(-44.9 9892 14116)"><tspan class="TextParagraph"><tspan class="TextPosition" x="9892" y="14116"><tspan font-family="Liberation Sans, sans-serif" font-size="353px" font-weight="400" fill="rgb(255,255,255)" stroke="none" style="white-space: pre">1.45.2</tspan></tspan></tspan></text>
 <text class="SVGTextShape" transform="rotate(-44.9 10508 14116)"><tspan class="TextParagraph"><tspan class="TextPosition" x="10508" y="14116"><tspan font-family="Liberation Sans, sans-serif" font-size="353px" font-weight="400" fill="rgb(255,255,255)" stroke="none" style="white-space: pre">1.45.1</tspan></tspan></tspan></text>
 <text class="SVGTextShape" transform="rotate(-44.9 11124 14116)"><tspan class="TextParagraph"><tspan class="TextPosition" x="11124" y="14116"><tspan font-family="Liberation Sans, sans-serif" font-size="353px" font-weight="400" fill="rgb(255,255,255)" stroke="none" style="white-space: pre">1.44.1</tspan></tspan></tspan></text>
 <text class="SVGTextShape" transform="rotate(-44.9 11739 14116)"><tspan class="TextParagraph"><tspan class="TextPosition" x="11739" y="14116"><tspan font-family="Liberation Sans, sans-serif" font-size="353px" font-weight="400" fill="rgb(255,255,255)" stroke="none" style="white-space: pre">1.43.1</tspan></tspan></tspan></text>
 <text class="SVGTextShape" transform="rotate(-44.9 12355 14116)"><tspan class="TextParagraph"><tspan class="TextPosition" x="12355" y="14116"><tspan font-family="Liberation Sans, sans-serif" font-size="353px" font-weight="400" fill="rgb(255,255,255)" stroke="none" style="white-space: pre">1.41.1</tspan></tspan></tspan></text>
 <text class="SVGTextShape" transform="rotate(-44.9 12970 14116)"><tspan class="TextParagraph"><tspan class="TextPosition" x="12970" y="14116"><tspan font-family="Liberation Sans, sans-serif" font-size="353px" font-weight="400" fill="rgb(255,255,255)" stroke="none" style="white-space: pre">1.34.2</tspan></tspan></tspan></text>
 <text class="SVGTextShape" transform="rotate(-44.9 13586 14116)"><tspan class="TextParagraph"><tspan class="TextPosition" x="13586" y="14116"><tspan font-family="Liberation Sans, sans-serif" font-size="353px" font-weight="400" fill="rgb(255,255,255)" stroke="none" style="white-space: pre">1.34.1</tspan></tspan></tspan></text>
 <text class="SVGTextShape" transform="rotate(-44.9 14202 14116)"><tspan class="TextParagraph"><tspan class="TextPosition" x="14202" y="14116"><tspan font-family="Liberation Sans, sans-serif" font-size="353px" font-weight="400" fill="rgb(255,255,255)" stroke="none" style="white-space: pre">1.31.1</tspan></tspan></tspan></text>
 <text class="SVGTextShape" transform="rotate(-44.9 14818 14116)"><tspan class="TextParagraph"><tspan class="TextPosition" x="14818" y="14116"><tspan font-family="Liberation Sans, sans-serif" font-size="353px" font-weight="400" fill="rgb(255,255,255)" stroke="none" style="white-space: pre">1.30.1</tspan></tspan></tspan></text>
 <text class="SVGTextShape" transform="rotate(-44.9 15434 14116)"><tspan class="TextParagraph"><tspan class="TextPosition" x="15434" y="14116"><tspan font-family="Liberation Sans, sans-serif" font-size="353px" font-weight="400" fill="rgb(255,255,255)" stroke="none" style="white-space: pre">1.29.2</tspan></tspan></tspan></text>
 <text class="SVGTextShape" transform="rotate(-44.9 16050 14116)"><tspan class="TextParagraph"><tspan class="TextPosition" x="16050" y="14116"><tspan font-family="Liberation Sans, sans-serif" font-size="353px" font-weight="400" fill="rgb(255,255,255)" stroke="none" style="white-space: pre">1.29.1</tspan></tspan></tspan></text>
 <text class="SVGTextShape" transform="rotate(-44.9 16666 14116)"><tspan class="TextParagraph"><tspan class="TextPosition" x="16666" y="14116"><tspan font-family="Liberation Sans, sans-serif" font-size="353px" font-weight="400" fill="rgb(255,255,255)" stroke="none" style="white-space: pre">1.27.2</tspan></tspan></tspan></text>
 <text class="SVGTextShape" transform="rotate(-44.9 17281 14116)"><tspan class="TextParagraph"><tspan class="TextPosition" x="17281" y="14116"><tspan font-family="Liberation Sans, sans-serif" font-size="353px" font-weight="400" fill="rgb(255,255,255)" stroke="none" style="white-space: pre">1.27.1</tspan></tspan></tspan></text>
 <text class="SVGTextShape" transform="rotate(-44.9 17897 14116)"><tspan class="TextParagraph"><tspan class="TextPosition" x="17897" y="14116"><tspan font-family="Liberation Sans, sans-serif" font-size="353px" font-weight="400" fill="rgb(255,255,255)" stroke="none" style="white-space: pre">1.26.2</tspan></tspan></tspan></text>
 <text class="SVGTextShape" transform="rotate(-44.9 18513 14116)"><tspan class="TextParagraph"><tspan class="TextPosition" x="18513" y="14116"><tspan font-family="Liberation Sans, sans-serif" font-size="353px" font-weight="400" fill="rgb(255,255,255)" stroke="none" style="white-space: pre">1.26.1</tspan></tspan></tspan></text>
 <text class="SVGTextShape" transform="rotate(-44.9 19129 14116)"><tspan class="TextParagraph"><tspan class="TextPosition" x="19129" y="14116"><tspan font-family="Liberation Sans, sans-serif" font-size="353px" font-weight="400" fill="rgb(255,255,255)" stroke="none" style="white-space: pre">1.24.1</tspan></tspan></tspan></text>
 <text class="SVGTextShape" transform="rotate(-44.9 19745 14116)"><tspan class="TextParagraph"><tspan class="TextPosition" x="19745" y="14116"><tspan font-family="Liberation Sans, sans-serif" font-size="353px" font-weight="400" fill="rgb(255,255,255)" stroke="none" style="white-space: pre">1.22.1</tspan></tspan></tspan></text>
 <text class="SVGTextShape" transform="rotate(-44.9 20361 14116)"><tspan class="TextParagraph"><tspan class="TextPosition" x="20361" y="14116"><tspan font-family="Liberation Sans, sans-serif" font-size="353px" font-weight="400" fill="rgb(255,255,255)" stroke="none" style="white-space: pre">1.15.1</tspan></tspan></tspan></text>
 <text class="SVGTextShape" transform="rotate(-44.9 20977 14116)"><tspan class="TextParagraph"><tspan class="TextPosition" x="20977" y="14116"><tspan font-family="Liberation Sans, sans-serif" font-size="353px" font-weight="400" fill="rgb(255,255,255)" stroke="none" style="white-space: pre">1.12.1</tspan></tspan></tspan></text>
 <text class="SVGTextShape"><tspan class="TextParagraph"><tspan class="TextPosition" x="811" y="13088"><tspan font-family="Liberation Sans, sans-serif" font-size="353px" font-weight="400" fill="rgb(255,255,255)" stroke="none" style="white-space: pre">0</tspan></tspan></tspan></text>
 <text class="SVGTextShape"><tspan class="TextParagraph"><tspan class="TextPosition" x="811" y="11303"><tspan font-family="Liberation Sans, sans-serif" font-size="353px" font-weight="400" fill="rgb(255,255,255)" stroke="none" style="white-space: pre">5</tspan></tspan></tspan></text>
 <text class="SVGTextShape"><tspan class="TextParagraph"><tspan class="TextPosition" x="626" y="9518"><tspan font-family="Liberation Sans, sans-serif" font-size="353px" font-weight="400" fill="rgb(255,255,255)" stroke="none" style="white-space: pre">10</tspan></tspan></tspan></text>
 <text class="SVGTextShape"><tspan class="TextParagraph"><tspan class="TextPosition" x="626" y="7733"><tspan font-family="Liberation Sans, sans-serif" font-size="353px" font-weight="400" fill="rgb(255,255,255)" stroke="none" style="white-space: pre">15</tspan></tspan></tspan></text>
 <text class="SVGTextShape"><tspan class="TextParagraph"><tspan class="TextPosition" x="626" y="5949"><tspan font-family="Liberation Sans, sans-serif" font-size="353px" font-weight="400" fill="rgb(255,255,255)" stroke="none" style="white-space: pre">20</tspan></tspan></tspan></text>
 <text class="SVGTextShape"><tspan class="TextParagraph"><tspan class="TextPosition" x="626" y="4164"><tspan font-family="Liberation Sans, sans-serif" font-size="353px" font-weight="400" fill="rgb(255,255,255)" stroke="none" style="white-space: pre">25</tspan></tspan></tspan></text>
 <text class="SVGTextShape"><tspan class="TextParagraph"><tspan class="TextPosition" x="626" y="2379"><tspan font-family="Liberation Sans, sans-serif" font-size="353px" font-weight="400" fill="rgb(255,255,255)" stroke="none" style="white-space: pre">30</tspan></tspan></tspan></text>
 <text class="SVGTextShape"><tspan class="TextParagraph"><tspan class="TextPosition" x="626" y="594"><tspan font-family="Liberation Sans, sans-serif" font-size="353px" font-weight="400" fill="rgb(255,255,255)" stroke="none" style="white-space: pre">35</tspan></tspan></tspan></text>
</svg>