<svg viewBox="0 0 127 27" xmlns="http://www.w3.org/2000/svg"><g fill="#fff" fill-rule="evenodd"><path d="m36.9349354 15.7253725c0-.4453394-.0405374-.9643014-.1629192-1.4086112-.5290384-2.0392941-2.4825293-3.7436827-5.1692849-3.7436827-3.7032687 0-5.9010101 2.9652397-5.9010101 6.8940086 0 3.670575 1.9937717 6.6733983 5.8196788 6.6733983 2.4019677 0 4.599196-1.4832634 5.2506162-3.8924724.1223818-.4445672.1629192-.8891343.1629192-1.4088686zm3.5819131-15.68058114v21.68622774c0 1.5939547.0405374 3.4098069.1629192 4.6335893h-3.2160505l-.1624061-3.1140294h-.0818444c-1.0988707 2.001968-3.4590182 3.5212704-6.6745556 3.5212704-4.7621151 0-8.4651273-3.6692879-8.4651273-9.1189038-.041307-6.0051317 4.069901-9.63812318 8.8315031-9.63812318 3.0526182 0 5.0882101 1.29714759 5.9420606 2.70601618h.0815879v-10.67604724z"/><path d="m57.5117576 22.0638653v-6.7094374c0-3.5959227-1.4662728-7.33960548-7.5294323-7.33960548-2.4835556 0-4.8850101.63042557-6.5124061 1.55662859l.8138263 2.18705419c1.3839151-.8525805 3.2966121-1.3344738 5.1682585-1.3344738 4.0298768-.0370687 4.4773273 2.6689475 4.4773273 4.1519535l.0792788 2.7477185.0025657 2.9987045c0 .3336185-.040794.7037908-.1624061 1.0376666-.5703455 1.5193025-2.2390485 3.0025659-4.843703 3.0025659-1.7910849 0-3.3374061-.9643014-3.3374061-3.1142869 0-2.604592 2.4573859-3.6136848 5.3411838-3.9269669 0-.1124933.0010263-.2329666.0010263-.4201121 0-.6000498-.0010263-1.2343367-.0010263-1.8343865-5.7632343.5279717-8.9230969 2.806668-8.9230969 6.5526675 0 2.5942952 2.0345656 5.1522939 6.0233919 5.1522939 2.8091374 0 4.9658283-1.2598214 6.0241616-2.66869h.1223818l.3250687 2.261449h3.215794c-.2034566-1.2237824-.2847879-2.7430849-.2847879-4.3007431"/><path d="m79.6744121 25.5853931c-1.2617899.5930995-3.9067252 1.1864563-7.2438747 1.1864563-7.7339152 0-13.5135697-4.4485031-13.5135697-12.6775004 0-7.85831003 5.8217313-13.12283977 14.3271394-13.12283977 3.3776868 0 5.5764545.66723686 6.512406 1.11206144l-.894901 2.63213615c-1.3028404-.59335685-3.2160505-1.037924-5.4961495-1.037924-6.4287656 0-10.703406 3.74368275-10.703406 10.30510268 0 6.1534066 3.866701 10.045879 10.5009757 10.045879 2.1977414 0 4.3957394-.407241 5.8189091-1.0376665z"/><path d="m88.8166162 24.3253143c3.419507 0 5.9831111-2.9281711 5.9831111-7.0059871 0-3.039892-1.6687031-6.8579696-5.9020364-6.8579696-4.1922828 0-6.0231353 3.5585966-6.0231353 6.9694332 0 3.9292837 2.4422484 6.8945235 5.9020363 6.8945235zm-.1223819 2.4465351c-5.2916666 0-9.4418727-3.5585966-9.4418727-9.2303673 0-6.0051318 4.3536626-9.52665968 9.7677111-9.52665968 5.6575293 0 9.4839495 3.74368278 9.4839495 9.19278378 0 6.6733983-5.0882101 9.5642432-9.7687374 9.5642432z"/><path d="m100.233788 14.0199542c0-2.1126593-.039255-3.9295412-.16138-5.59686107h3.13395l.162406 3.52152787h.122125c.894901-2.41049612 3.093925-3.92979858 5.494097-3.92979858.367915 0 .653473.03732614.979311.11172099v3.03963459c-.407939-.0370687-.774828-.0743948-1.262816-.0743948-2.524606 0-4.315691 1.7417147-4.803679 4.1519534-.081075.4816359-.122382 1.0005979-.122382 1.5566286v9.5642432h-3.580887z"/><path d="m116.299929 17.983475 10.536382.0033465c.082358-.3709446.122382-.8899066.122382-1.5576583 0-3.2991156-1.668703-8.45140949-8.099778-8.45140949-5.737834 0-9.279467 4.26341699-9.279467 9.71251809 0 5.375221 3.662988 9.0445089 9.68715 9.0445089 3.133949 0 5.330921-.6296533 6.592711-1.1493876l-.650394-2.2977454c-1.302071.4816358-2.889442.8899065-5.454073.8899065-3.581913 0-6.648385-1.8202283-6.730743-6.2311479l-.007697-.2473822c-.030531-.694781-.010263-1.3916213.058497-2.0565414l.005131-.0285738c.284532-2.2606767 1.832136-5.3003113 5.494097-5.3003113 3.988827 0 4.966085 3.2620469 4.924778 5.3003113h-7.191792c0 .684999-.007184 2.3695661-.007184 2.3695661"/><path d="m3.66298788 26.354569h-3.66298788l9.32051717-24.98482851h4.27335753l9.3613112 24.98482851h-3.7848566l-2.9304929-7.8588249-6.62401216-.0002575c.06285859-.1928088.78945256-2.4704753.82075356-2.519128l5.070507-.0005149-4.2333333-11.75103992z"/></g></svg>