<svg height="36.62384mm" viewBox="0 0 146.71918 36.62384" width="146.71918mm" xmlns="http://www.w3.org/2000/svg"><path d="m2246.0312 2340.1914c-.016.0003-.031 0-.047 0-.9804 3.0675-1.7386 6.3997-1.8828 10.1953-.2712 7.1263.453 11.4639-.3672 16.0801-.8202 4.6163-3.2453 9.161-9.4141 16.2871-7.3424 8.482-18.9789 15.0453-32.4199 17.2637-2.5015 1.5971-5.1421 3.0609-7.9199 4.3633 10.4618 3.9385 21.4025 4.1531 30.0761 1.3066 15.2793-5.0141 14.0962-8.6155 20.9434-19.1074 2.1569-3.3051 4.6474-5.8282 7.1484-7.9004 7.1248 3.1068 14.1431 5.1015 18.5157 4.6074 2.351-5.4505-.057-11.7712-4.0586-17.7461 3.2821-10.196-1.6986-20.4059-12.7305-24.0156-2.8775-.9415-5.4633-1.3844-7.8438-1.3379zm8.2754 14.9707a4.1668789 4.2454995 48.679502 0 1 3.1973 1.3965 4.1668789 4.2454995 48.679502 0 1 -.4375 5.9336 4.1668789 4.2454995 48.679502 0 1 -5.9394-.3262 4.1668789 4.2454995 48.679502 0 1 .4375-5.9336 4.1668789 4.2454995 48.679502 0 1 2.7421-1.0703zm-68.375 45.3789c.1273.075.2572.1408.3848.2149.131-.049.2642-.1009.3945-.1504-.2598-.023-.5188-.039-.7793-.064z" fill="#787878" transform="matrix(.26458332945 -.0000000003 .0000000003 .26458332945 -551.34154070488 -602.39880878481)"/><path d="m2191.1465 2276.7832c-5.9729-.035-12.0979 2.348-17.3613 7.459-6.9129 6.7127-9.0602 12.7555-7.8477 20.2949l.332 2.0684-2.0664-.336c-15.1877-2.4609-33.9847-1.2178-55.3711 7.4336 6.2868 2.6948 17.8259 7.1926 30.6309 13.3418l4.0605 1.9512-4.414.8945c-16.9087 3.4274-36.9729 13.3275-55.2989 34.9336 8.1981-.6372 24.9531-2.6089 42.4278-2.582 9.7138.015 19.2869.687 27.0859 2.709 7.7991 2.022 14.8874 6.6498 15.8861 10.0406s.432 5.1761-.5519 7.8285-4.0098 6.6817-8.1953 9.3418-9.4961 4.9849-15.0137 6.9609c-11.0352 3.9521-22.7798 6.4773-27.9648 6.959-1.1021.1024-1.5421.4983-1.9668 1.2696-.4247.7712-.659 1.9824-.6934 3.25-.046 1.6926.217 2.576.6949 3.246s1.2243.9381 1.9934.9902c32.5822 2.2052 56.9441-5.9907 74.6379-13.0116 20.3508-9.3311 33.2134-27.7577 36.0058-44.3477 1.7499-10.395 1.3746-15.4894-.3124-19.8281-1.6873-4.3387-4.9223-8.1914-9.0254-15.5488-2.6368-4.7281-4.1077-9.367-5.0196-13.6875l-.1933-.9102.7265-.582c7.5403-6.0446 13.6809-12.6444 15.9102-17.4492-4.5742-4.8648-12.4787-5.893-21.3223-4.9473l-.7265.076-.5118-.5215c-4.7125-4.8006-10.5615-7.2614-16.5351-7.2969zm2.6484 11.2324c2.593-.041 4.8808 1.7566 5.502 4.3223.7307 3.0216-1.0812 6.0525-4.0469 6.7695-2.9656.7176-5.9625-1.1502-6.6934-4.1719-.7307-3.0216 1.0812-6.0525 4.0469-6.7695.3902-.094.7897-.1445 1.1914-.1504z" fill="#ececec" transform="matrix(.26458333083 -.00000000134 .00000000134 .26458333083 -551.34152633934 -602.39877593678)"/><path d="m2230.8945 2301.1738c-1.9108-.039-3.9117.162-5.9785.6328-.1394.032-.2613.071-.3984.1036-2.274 2.2481-4.8127 4.5047-7.5293 6.7168.8746 3.8597 2.1735 7.8829 4.4707 12.0019 3.9872 7.1495 7.2742 10.9657 9.2031 15.9258s2.2639 10.7945.4746 21.4238c-2.2183 13.178-10.2404 27.1324-22.959 37.4336 9.8717-2.8792 18.2866-8.1915 23.8575-14.6269 6.0132-6.9464 8.0191-10.8762 8.7226-14.836.7036-3.9598.044-8.2997.3242-15.664.1805-4.7447 1.1911-8.8958 2.4766-12.545l.3086-.875.9219-.1211c8.2284-1.0673 15.6654-3.167 19.5097-5.6484-1.2349-5.5522-6.4807-9.8603-13.4277-13.1348l-.6621-.3125-.166-.7129c-2.2034-9.4614-9.5905-15.5632-19.1485-15.7617zm4.7832 11.6856a4.8229105 4.9139092 17.729059 0 1 1.4473.2246 4.8229105 4.9139092 17.729059 0 1 3.0977 6.1484 4.8229105 4.9139092 17.729059 0 1 -6.0899 3.2129 4.8229105 4.9139092 17.729059 0 1 -3.0976-6.1484 4.8229105 4.9139092 17.729059 0 1 4.6425-3.4375z" fill="#b2b2b2" transform="matrix(.26458333491 -.00000000008 .00000000008 .26458333491 -551.34151980557 -602.39878319259)"/><g fill="#ececec" stroke-width=".288674" transform="matrix(1.7088406 0 0 1.8039104 -86.146733 -338.7176)"><path d="m87.399725 202.26207q.344867.0985.886803.1478.541936.0247 1.034604.0247.985338 0 1.625808-.39414.665102-.41877.665102-1.28094 0-.8129-.541936-1.15776-.541936-.34488-1.650441-.34488h-2.01994zm0-6.01056h1.79824q1.059239 0 1.527274-.39413.492668-.39414.492668-1.15777 0-.6651-.56657-1.05925-.541934-.39413-1.650439-.39413-.369502 0-.86217.0247-.468036.0246-.739003.0739zm1.601173 9.48388q-.418769 0-.985337-.0247-.56657-.0246-1.182405-.0985-.591203-.0739-1.182406-.19708-.591202-.0985-1.083871-.29559-1.354839-.5173-1.354839-1.79824v-11.50381q0-.51731.270969-.78828.2956-.2956.788269-.46804.837536-.29559 2.093842-.41877 1.256306-.1478 2.586512-.1478 3.153079 0 4.852786 1.05924 1.699706 1.05923 1.699706 3.27625 0 1.10851-.640469 1.92141-.640469.78827-1.72434 1.15777 1.231672.34487 2.044575 1.25631.837537.91143.837537 2.29091 0 2.4387-1.822875 3.62111-1.79824 1.15778-5.197654 1.15778z"/><path d="m96.48021 192.7043q0-1.05924.615839-1.67508.615835-.61582 1.675075-.61582h8.129006q.17244.27096.29561.71435.1478.44341.1478.93609 0 .93606-.41877 1.33019-.39413.39414-1.05924.39414h-5.19763v2.29091h5.5425q.17243.27097.29561.71437.1478.41877.1478.91144 0 .93607-.39414 1.3302-.39414.39413-1.05925.39413h-4.53252v2.58653h6.33077q.17244.27095.2956.71435.1478.44341.1478.93608 0 .93607-.41876 1.35484-.39415.39413-1.05924.39413h-7.192946q-1.05924 0-1.675075-.61583-.615839-.61584-.615839-1.67508z"/><path d="m117.84176 204.84858q-.34487.2956-1.08387.5173-.71437.22171-1.57654.22171-1.03461 0-1.77361-.29561-.739-.32023-1.00997-.86217-.27097-.56657-.66509-1.45337-.39414-.91144-.83755-2.01994-.41877-1.10851-.8868-2.34018-.4434-1.2563-.86217-2.53724-.41877-1.28094-.78827-2.51261-.3695-1.23167-.64047-2.31554.34487-.34487.98534-.61584.66511-.2956 1.40411-.2956.91144 0 1.47801.39414.59119.3695.86215 1.4041.66511 2.41408 1.33022 4.63109.68973 2.19237 1.42873 4.58182h.1478q.66511-2.31555 1.35485-5.04985.71437-2.73432 1.35483-5.444.44341-.2217.93607-.3695.51731-.1478 1.15777-.1478.91144 0 1.55191.41877.64047.39413.64047 1.3302 0 .54195-.27097 1.57655-.24634 1.0346-.6651 2.34017-.39413 1.28094-.91143 2.68504-.49268 1.4041-1.00997 2.66042-.49268 1.23168-.93608 2.19237-.4434.93607-.71437 1.30557z"/><path d="m131.98507 205.24272q-.27096.0739-.83753.1478-.56657.0739-1.10851.0739-1.13314 0-1.69971-.36951-.56657-.39412-.56657-1.6258v-3.32552q-.61583-.91143-1.3302-2.01993-.71437-1.10851-1.4041-2.26629-.68974-1.15776-1.28094-2.26627-.5912-1.13314-.96071-2.0692.32024-.44342.86218-.81291.56657-.36951 1.37947-.36951.9607 0 1.5519.39414.61583.39413 1.15777 1.478l2.04458 4.11379h.1478q.34486-.76364.5912-1.37947.27097-.64047.51731-1.25631.24633-.64046.5173-1.30557.27096-.68973.61583-1.57654.4434-.2217.98534-.34487.54194-.12317 1.0346-.12317.86218 0 1.45337.46804.61584.44341.61584 1.35484 0 .2956-.12317.71437-.12317.41877-.56656 1.28093-.44341.83754-1.30558 2.29092-.83753 1.45337-2.29091 3.79355z"/></g></svg>