<svg height="102.92578pt" viewBox="0 0 343.05856 102.92578" width="343.05856pt" xmlns="http://www.w3.org/2000/svg" xmlns:xlink="http://www.w3.org/1999/xlink"><symbol id="a" overflow="visible"><path d="m15.03125-26.8125c0 7.09375 1.328125 10.578125 6.859375 15.140625l8.53125 7.109375c5.40625 4.4375 8.171875 4.5625 14.90625 4.5625h18.28125c3.84375 0 7.9375-.84375 7.9375-5.765625 0-5.0625-4.5625-5.78125-7.9375-5.78125h-20.3125c-2.296875 0-4.578125-1.203125-6.625-2.890625l-6.96875-5.890625c-1.8125-1.4375-3.125-2.640625-3.125-4.921875v-14.3125c0-2.28125 1.3125-3.484375 3.125-4.9375l6.96875-5.890625c2.046875-1.671875 4.328125-2.875 6.625-2.875h20.3125c3.375 0 7.9375-.734375 7.9375-5.78125 0-4.921875-4.09375-5.765625-7.9375-5.765625h-18.28125c-6.734375 0-9.5.125-14.90625 4.5625l-8.53125 7.09375c-5.53125 4.578125-6.859375 8.0625-6.859375 15.15625zm0 0"/></symbol><symbol id="b" overflow="visible"><path d="m71.546875-56.875c0-3.96875-.84375-7.9375-5.765625-7.9375-4.9375 0-5.78125 3.96875-5.78125 7.9375v33.546875l-16.953125 10.703125c-1.078125.71875-2.28125 1.078125-3.609375 1.078125h-3.84375c-2.765625 0-5.765625-.71875-6.734375-2.40625-.96875-1.671875-1.078125-4.8125-1.203125-7.453125l-1.203125-35.46875c-.125-3.734375-.71875-7.9375-5.65625-7.9375-5.28125 0-5.890625 4.453125-5.765625 8.65625l1.203125 36.3125c.234375 6.25.125 11.1875 5.296875 15.640625 3.84375 3.234375 7.453125 4.203125 10.703125 4.203125h8.53125c3.125 0 6.25-1.4375 9.984375-3.84375l9.375-6.140625v1.921875c0 3.96875.84375 8.0625 5.765625 8.0625 6.140625 0 5.65625-5.890625 5.65625-8.53125zm0 0"/></symbol><symbol id="c" overflow="visible"><path d="m15.03125-7.9375c0 3.96875.84375 7.9375 5.765625 7.9375 4.9375 0 5.78125-3.96875 5.78125-7.9375v-29.21875l16.109375-13.34375c2.046875-1.6875 3.609375-2.765625 5.765625-2.765625h3.375c2.765625 0 5.53125 0 6.96875 2.046875 1.203125 1.671875 1.203125 3.125 1.203125 5.046875 0 3.71875 1.6875 7.09375 5.890625 7.09375 4.9375 0 5.65625-4.09375 5.65625-8.0625 0-5.28125-1.328125-9.25-5.171875-13.109375-3.125-3.125-6.84375-4.5625-11.296875-4.5625h-9.265625c-3.609375 0-6.96875 2.28125-10.21875 4.921875l-9.015625 7.46875v-4.703125c0-3.84375-1.203125-7.6875-5.78125-7.6875-5.28125 0-5.765625 4.328125-5.765625 8.53125zm0 0"/></symbol><symbol id="d" overflow="visible"><path d="m49.296875-80.5625c0-6.859375-1.921875-8.0625-8.53125-8.0625h-12.140625c-3.859375 0-7.9375.84375-7.9375 5.765625 0 5.0625 4.5625 5.78125 7.9375 5.78125h9.140625v65.53125h-9.140625c-3.859375 0-7.9375.84375-7.9375 5.78125 0 5.046875 4.5625 5.765625 7.9375 5.765625h29.328125c3.375 0 7.9375-.71875 7.9375-5.765625 0-4.9375-4.078125-5.78125-7.9375-5.78125h-8.65625zm0 0"/></symbol><path d="m333.97655 14.04297c-2.74219 0-4.96094-2.22266-4.96094-4.96094 0-2.74219 2.21875-4.96094 4.96094-4.96094 2.73828 0 4.96094 2.21875 4.96094 4.96094 0 2.73828-2.22266 4.96094-4.96094 4.96094m-49.26953 84.76171c-2.74219 0-4.96094-2.22265-4.96094-4.96093 0-2.74219 2.21875-4.96094 4.96094-4.96094 2.73828 0 4.95703 2.21875 4.95703 4.96094 0 2.73828-2.21875 4.96093-4.95703 4.96093m49.26953-98.80468c-5.01563 0-9.08203 4.0664-9.08203 9.08203 0 1.07031.26953 2.0664.60937 3.01953l-42.60547 73.02344c-4.11718.86328-7.27343 4.34375-7.27343 8.71875 0 5.01562 4.0664 9.08203 9.08203 9.08203 5.01172 0 9.07812-4.06641 9.07812-9.08203 0-1.00782-.26953-1.92969-.57031-2.83594l42.82031-73.26172c3.99219-.95703 7.02344-4.37891 7.02344-8.66406 0-5.01563-4.06641-9.08203-9.08203-9.08203" fill="#0c544c"/><g fill="#073551"><path d="m296.81639 14.04297c-2.74218 0-4.96093-2.22266-4.96093-4.96094 0-2.74219 2.21875-4.96094 4.96093-4.96094 2.73828 0 4.95703 2.21875 4.95703 4.96094 0 2.73828-2.21875 4.96094-4.95703 4.96094m-49.27343 84.76171c-2.73829 0-4.96094-2.22265-4.96094-4.96093 0-2.74219 2.22265-4.96094 4.96094-4.96094 2.74218 0 4.96093 2.21875 4.96093 4.96094 0 2.73828-2.21875 4.96093-4.96093 4.96093m49.27343-98.80468c-5.01953 0-9.08203 4.0664-9.08203 9.08203 0 1.07031.26953 2.0664.60938 3.01953l-42.60547 73.02344c-4.1211.86328-7.27735 4.34375-7.27735 8.71875 0 5.01562 4.06641 9.08203 9.08204 9.08203 5.01562 0 9.08203-4.06641 9.08203-9.08203 0-1.00782-.26953-1.92969-.57032-2.83594l42.82032-73.26172c3.99218-.95703 7.02343-4.37891 7.02343-8.66406 0-5.01563-4.07031-9.08203-9.08203-9.08203"/><path d="m228.95702 29.22656c2.73828 0 4.96094 2.22266 4.96094 4.96094s-2.22266 4.96093-4.96094 4.96093c-2.74219 0-4.96094-2.22265-4.96094-4.96093s2.21875-4.96094 4.96094-4.96094m0 14.04297c5.01562 0 9.08203-4.06641 9.08203-9.08203 0-1.00391-.27344-1.92969-.57422-2.83594-1.20312-3.60547-4.5-6.24609-8.50781-6.24609-.64063 0-1.20313.23828-1.8086.36718-4.11718.85938-7.27343 4.33985-7.27343 8.71485 0 5.01562 4.0664 9.08203 9.08203 9.08203"/><path d="m223.99608 65.92187c0-2.74219 2.22266-4.96094 4.96094-4.96094s4.96094 2.21875 4.96094 4.96094c0 2.73828-2.22266 4.95703-4.96094 4.95703s-4.96094-2.21875-4.96094-4.95703m14.04297 0c0-1.00781-.27344-1.92969-.57422-2.83594-1.20312-3.60546-4.49609-6.24609-8.50781-6.24609-.64063 0-1.20313.23828-1.8086.36328-4.11718.86328-7.27343 4.34375-7.27343 8.71875 0 5.01172 4.0664 9.08203 9.08203 9.08203 5.01562 0 9.08203-4.07031 9.08203-9.08203"/><use height="100%" transform="translate(-86.210953 -184.05469)" width="100%" x="71.179703" xlink:href="#a" y="286.97659"/><use height="100%" transform="translate(-86.210953 -184.05469)" width="100%" x="133.71095" xlink:href="#b" y="286.97659"/><use height="100%" transform="translate(-86.210953 -184.05469)" width="100%" x="196.2422" xlink:href="#c" y="286.97659"/><use height="100%" transform="translate(-86.210953 -184.05469)" width="100%" x="239.65331" xlink:href="#d" y="286.97659"/></g></svg>