<svg fill="none" height="143" viewBox="0 0 662 143" width="662" xmlns="http://www.w3.org/2000/svg"><g fill="#194e80"><path d="m95.2215 44.1856c-.8428.3131-1.7877.0562-2.3873-.6135-7.4501-8.3223-18.2799-13.5603-30.3341-13.5603s-22.8841 5.238-30.3342 13.5603c-.5995.6697-1.5444.9266-2.3873.6135l-28.0903-10.4341c-1.622875-.6029-2.208007-2.5965-1.168-3.9797l21.6092-28.73855c.4891-.65052 1.256-1.03325 2.0703-1.03325l76.6002.00000607c.814 0 1.581.38273193 2.071 1.03325393l21.609 28.73864c1.04 1.3831.455 3.3767-1.168 3.9796z"/><path d="m24.1998 86.833c.5822 0 1.1068.3467 1.3511.8747 6.4504 13.9393 20.5694 23.6113 36.9492 23.6113s30.4989-9.672 36.9493-23.6115c.2442-.5278.7686-.8745 1.3506-.8745.814 0 1.581.3827 2.071 1.0332l21.609 28.7388c1.04 1.383.455 3.377-1.168 3.979l-59.9097 22.254c-.5821.216-1.2225.216-1.8046 0l-59.9094-22.254c-1.622875-.602-2.208007-2.596-1.168-3.979l21.6092-28.7388c.4891-.6505 1.256-1.0332 2.0703-1.0332z"/><path d="m87.0013 70.6655c0 13.5209-10.9696 24.4817-24.5012 24.4817s-24.5012-10.9608-24.5012-24.4817 10.9696-24.4817 24.5012-24.4817 24.5012 10.9608 24.5012 24.4817z"/><path d="m161.692 104.939v-39.973h-7.418v-13.3981h7.418v-4.7613c0-7.2343 1.846-12.9921 5.537-17.2736 3.691-4.3553 8.6-6.533 14.727-6.533 4.872 0 9.928 1.1442 15.17 3.4326l-3.212 13.2874c-1.181-.5168-2.509-.9228-3.986-1.218-1.476-.3691-2.805-.5537-3.986-.5537-4.355 0-6.533 2.7313-6.533 8.1939v5.4257h13.509v13.3981h-13.509v39.973z"/><path d="m225.678 106.046c-6.57 0-12.18-1.365-16.831-4.097-4.65-2.731-8.231-6.3482-10.74-10.8511-2.437-4.503-3.655-9.375-3.655-14.6161 0-5.6103 1.218-10.7407 3.655-15.3913 2.436-4.6506 5.979-8.3784 10.629-11.1835 4.651-2.8051 10.298-4.2077 16.942-4.2077 6.57 0 12.18 1.4026 16.831 4.2077 4.65 2.8051 8.157 6.496 10.519 11.0728 2.436 4.5768 3.654 9.4857 3.654 14.7269 0 2.1407-.148 4.0231-.443 5.6471h-42.963c.296 3.9124 1.698 6.9021 4.208 8.969 2.584 1.9931 5.499 2.9897 8.747 2.9897 2.584 0 5.057-.6275 7.419-1.8824s3.987-2.9528 4.872-5.0935l15.059 4.2077c-2.288 4.5767-5.868 8.3046-10.74 11.1837-4.798 2.879-10.519 4.318-17.163 4.318zm-12.845-35.5436h25.246c-.369-3.6909-1.734-6.6068-4.097-8.7475-2.288-2.2146-5.13-3.3219-8.526-3.3219-3.395 0-6.274 1.1073-8.636 3.3219-2.289 2.2146-3.618 5.1304-3.987 8.7475z"/><path d="m299.369 61.9764c-4.281.0738-8.157.775-11.626 2.1038-3.47 1.3287-5.98 3.3218-7.53 5.9793v34.8795h-17.716v-58.1324h16.277v11.7372c1.993-3.9124 4.577-6.9759 7.751-9.1905 3.174-2.2145 6.496-3.3587 9.965-3.4326 1.477 0 2.436.037 2.879.1108z"/><path d="m341.489 61.9764c-4.281.0738-8.157.775-11.626 2.1038-3.47 1.3287-5.98 3.3218-7.53 5.9793v34.8795h-17.716v-58.1324h16.277v11.7372c1.993-3.9124 4.577-6.9759 7.751-9.1905 3.174-2.2145 6.496-3.3587 9.965-3.4326 1.477 0 2.436.037 2.879.1108z"/><path d="m373.986 106.046c-6.643 0-12.291-1.402-16.941-4.207-4.577-2.8056-8.083-6.4965-10.519-11.0733s-3.654-9.5226-3.654-14.8376c0-5.3888 1.218-10.3715 3.654-14.9483s5.979-8.2677 10.63-11.0728c4.65-2.8051 10.26-4.2077 16.83-4.2077s12.18 1.4026 16.831 4.2077 8.194 6.496 10.63 11.0728 3.654 9.5595 3.654 14.9483c0 5.315-1.218 10.2608-3.654 14.8376s-5.979 8.2677-10.63 11.0733c-4.651 2.805-10.261 4.207-16.831 4.207zm-12.955-30.1179c0 4.503 1.218 8.157 3.654 10.9621 2.51 2.8051 5.61 4.2077 9.301 4.2077 3.617 0 6.644-1.4026 9.08-4.2077 2.51-2.8051 3.765-6.4591 3.765-10.9621 0-4.5029-1.255-8.157-3.765-10.9621-2.436-2.8051-5.463-4.2077-9.08-4.2077-3.691 0-6.791 1.4026-9.301 4.2077-2.436 2.8051-3.654 6.4592-3.654 10.9621z"/><path d="m439.466 106.046c-6.496 0-12.107-1.402-16.831-4.207-4.651-2.8056-8.231-6.4965-10.741-11.0733-2.436-4.5768-3.654-9.5595-3.654-14.9483 0-5.315 1.218-10.2608 3.654-14.8376 2.51-4.5768 6.09-8.2677 10.741-11.0728 4.65-2.8051 10.261-4.2077 16.831-4.2077 6.643 0 12.254 1.4395 16.83 4.3184 4.651 2.8051 8.12 6.4961 10.409 11.0728l-17.274 5.2043c-2.288-3.691-5.647-5.5365-10.076-5.5365-3.617 0-6.681 1.3657-9.191 4.097-2.509 2.7313-3.764 6.3853-3.764 10.9621s1.255 8.2677 3.764 11.0728c2.51 2.8051 5.574 4.2077 9.191 4.2077 2.214 0 4.244-.5167 6.09-1.5502 1.845-1.1073 3.211-2.5098 4.097-4.2077l17.273 5.315c-2.14 4.5029-5.573 8.1939-10.297 11.073-4.651 2.879-10.335 4.318-17.052 4.318z"/><path d="m499.86 106.046c-6.57 0-12.18-1.365-16.831-4.097-4.65-2.731-8.23-6.3482-10.74-10.8511-2.436-4.503-3.654-9.375-3.654-14.6161 0-5.6103 1.218-10.7407 3.654-15.3913s5.979-8.3784 10.63-11.1835c4.65-2.8051 10.297-4.2077 16.941-4.2077 6.57 0 12.18 1.4026 16.831 4.2077 4.65 2.8051 8.157 6.496 10.519 11.0728 2.436 4.5768 3.654 9.4857 3.654 14.7269 0 2.1407-.148 4.0231-.443 5.6471h-42.962c.295 3.9124 1.697 6.9021 4.207 8.969 2.584 1.9931 5.5 2.9897 8.748 2.9897 2.583 0 5.056-.6275 7.419-1.8824 2.362-1.2549 3.986-2.9528 4.872-5.0935l15.059 4.2077c-2.289 4.5767-5.869 8.3046-10.741 11.1837-4.798 2.879-10.519 4.318-17.163 4.318zm-12.844-35.5436h25.246c-.369-3.6909-1.735-6.6068-4.097-8.7475-2.289-2.2146-5.131-3.3219-8.526-3.3219-3.396 0-6.275 1.1073-8.637 3.3219-2.289 2.2146-3.617 5.1304-3.986 8.7475z"/><path d="m592.707 104.939h-17.716v-32.6649c0-3.8386-.738-6.6068-2.215-8.3046-1.402-1.7717-3.285-2.6575-5.647-2.6575-2.436 0-4.909.9596-7.419 2.8789-2.509 1.9193-4.281 4.3922-5.315 7.4188v33.3293h-17.716v-58.1324h15.945v9.7441c2.141-3.3957 5.167-6.0532 9.08-7.9725 3.912-1.9193 8.415-2.8789 13.508-2.8789 3.765 0 6.792.7013 9.08 2.1038 2.362 1.3288 4.134 3.1004 5.315 5.315 1.255 2.1407 2.067 4.5029 2.436 7.0866.443 2.5837.664 5.0935.664 7.5295z"/><path d="m630.057 106.046c-6.57 0-12.18-1.365-16.831-4.097-4.651-2.731-8.231-6.3482-10.741-10.8511-2.436-4.503-3.654-9.375-3.654-14.6161 0-5.6103 1.218-10.7407 3.654-15.3913s5.98-8.3784 10.63-11.1835c4.651-2.8051 10.298-4.2077 16.942-4.2077 6.57 0 12.18 1.4026 16.83 4.2077 4.651 2.8051 8.157 6.496 10.52 11.0728 2.436 4.5768 3.654 9.4857 3.654 14.7269 0 2.1407-.148 4.0231-.443 5.6471h-42.963c.295 3.9124 1.698 6.9021 4.208 8.969 2.583 1.9931 5.499 2.9897 8.747 2.9897 2.584 0 5.057-.6275 7.419-1.8824s3.986-2.9528 4.872-5.0935l15.059 4.2077c-2.288 4.5767-5.868 8.3046-10.74 11.1837-4.799 2.879-10.52 4.318-17.163 4.318zm-12.845-35.5436h25.246c-.369-3.6909-1.734-6.6068-4.097-8.7475-2.288-2.2146-5.13-3.3219-8.526-3.3219-3.395 0-6.274 1.1073-8.637 3.3219-2.288 2.2146-3.617 5.1304-3.986 8.7475z"/></g></svg>