<svg height="48" viewBox="0 0 256 48" width="256" xmlns="http://www.w3.org/2000/svg" xmlns:xlink="http://www.w3.org/1999/xlink"><mask id="a" fill="#fff"/><g fill="none" fill-rule="nonzero"><path d="m7.76539072 20.5714286s1.66318071 0 1.66318071 1.6631807v6.10221s0 1.6631807-1.66318071 1.6631807h-6.10221001s-1.66318071 0-1.66318071-1.6631807v-6.10221s0-1.6631807 1.66318071-1.6631807z" fill="#fff"/><g fill="#fefefe"><path d="m26.6225336 30s1.6631807 0 1.6631807 1.6282225v14.743555s0 1.6282225-1.6631807 1.6282225h-6.10221s-1.6631807 0-1.6631807-1.6282225v-14.743555s0-1.6282225 1.6631807-1.6282225z"/><path d="m28.9082703 8.50166649v-6.17703896c0-1.68311688-1.6996866-1.68311688-1.6996866-1.68311688h-6.2361503-19.27274676c-1.69968664 0-1.69968664 1.68311688-1.69968664 1.68311688v6.17703896c0 1.68311691 1.69968664 1.68311691 1.69968664 1.68311691h17.57306016v7.8584727c0 1.6831169 1.6996866 1.6831169 1.6996866 1.6831169h6.2361503c1.6996866 0 1.6996866-1.6831169 1.6996866-1.6831169z" mask="url(#a)"/><path d="m56.8614579 14.5714286h-1.5153493c-2.6501701 0-3.9270549 1.3703336-3.9270549 3.9251357v1.6102688l-1.704768.2365557v2.1965891h1.704768v8.3504179h2.8615749v-8.3504179h2.7939253v-2.4331448h-2.7939253v-1.5866132c0-.946223.284128-1.5156465 1.2312213-1.5156465h1.349608zm6.9865046 14.1460337c-1.5643952 0-2.3694246-.8769459-2.4404566-2.2979701h6.5112667c.1183867-.4477662.1894187-1.2757114.1894187-1.8654111 0-2.3452812-1.2532075-4.6838038-4.5680341-4.6838038-3.338504 0-5.0179035 2.5750783-5.0179035 5.6283372 0 3.2898145 1.5846901 5.6519927 5.3257088 5.6519927 1.7301366 0 3.1727627-.7316332 3.9997781-1.5595783l-1.3479168-1.8687904c-.8033381.6640458-1.7741087.9952238-2.6518613.9952238zm-2.4167792-4.3289702c.071032-1.2317795.6866426-2.2270034 2.1089739-2.2270034 1.0181253 0 1.9195552.5930791 1.9195552 1.8721698 0 .0709667-.0236773.2129002-.0473547.3548336zm11.9570533-2.5801473v-1.7015117h-2.7431882v10.7835627h2.8615749v-6.7891499c.4025146-.7569784 1.136512-1.2774011 2.0836053-1.2774011.5209013 0 1.2312213.0946223 1.7284453.2129002l.213096-3.0245342c-.35516-.0946223-.781352-.1419335-1.2312213-.1419335-1.5153493 0-2.344056.9698786-2.8886347 1.9397572zm8.9263547 0v-1.7015117h-2.7431882v10.7835627h2.8615748v-6.7891499c.4025147-.7569784 1.136512-1.2774011 2.0836054-1.2774011.5209013 0 1.2312213.0946223 1.7284453.2129002l.213096-3.0245342c-.35516-.0946223-.781352-.1419335-1.2312213-.1419335-1.5153494 0-2.344056.9698786-2.8886347 1.9397572zm10.6564912-1.9380675c-3.5516 0-5.1362901 2.3621781-5.1362901 5.6519927 0 3.2188479 1.6557221 5.6283372 5.0415808 5.6283372 3.5516 0 5.1599674-2.3621782 5.1599674-5.6756483 0-3.2425035-1.6557221-5.6046816-5.0652581-5.6046816zm-.0473546 8.7052516c-1.4696859 0-2.1800059-1.0171897-2.1800059-3.10057 0-1.9870683.6866426-3.0296033 2.1563285-3.0296033 1.5153494 0 2.2036833 1.042535 2.2036833 3.0769144 0 1.9651024-.6883339 3.0532589-2.1800059 3.0532589zm17.3537941-8.4686958h-2.863266v7.5934395c-.426192.4021448-1.278576.8042895-2.107283.8042895-1.446008 0-1.943232-.6860116-1.943232-1.9870682v-6.4106608h-2.886944v6.7418388c0 2.7896682 1.254899 4.2782797 3.691973 4.2782797 1.730137 0 2.771939-.6606664 3.340195-1.464956v1.2284002h2.768557zm11.175701 1.3466781c-.71032-.780634-1.93985-1.5832339-4.07081-1.5832339-3.267472 0-4.427661 1.9127222-4.427661 3.4756798 0 1.561268.947093 2.67308 2.839589 3.1461915l1.8722.4494559c.733998.1672787 1.089158.5457679 1.089158 1.0188794 0 .7096673-.686643 1.0645009-1.659105 1.0645009-1.349608 0-2.273024-.7333228-2.886943-1.3956789l-1.633736 1.7032014c.686642.849911 2.081914 1.8180999 4.402292 1.8180999 3.527923 0 4.688112-1.7471332 4.688112-3.4503346 0-1.5629576-.923416-2.7220808-3.076362-3.1951923l-1.801168-.4258003c-.686643-.1419335-.994448-.5204227-.994448-1.0171897 0-.5694235.473546-1.042535 1.469686-1.042535 1.06548 0 1.965218.4731115 2.604506 1.1135017zm15.840136 0c-.71032-.780634-1.93985-1.5832339-4.072501-1.5832339-3.267472 0-4.42597 1.9127222-4.42597 3.4756798 0 1.561268.947093 2.67308 2.837897 3.1461915l1.873892.4494559c.733998.1672787 1.089158.5457679 1.089158 1.0188794 0 .7096673-.686643 1.0645009-1.659105 1.0645009-1.351299 0-2.273024-.7333228-2.888635-1.3956789l-1.632044 1.7032014c.686642.849911 2.081914 1.8180999 4.402292 1.8180999 3.527923 0 4.686421-1.7471332 4.686421-3.4503346 0-1.5629576-.921725-2.7220808-3.074671-3.1951923l-1.801168-.4258003c-.686643-.1419335-.99614-.5204227-.99614-1.0171897 0-.5694235.475238-1.042535 1.469686-1.042535 1.067172 0 1.96691.4731115 2.604507 1.1135017zm4.546048-1.3466781h-3.220117l4.427661 10.3121409-2.320378 5.581026h2.912312l6.321848-15.8931669h-3.078054l-2.415088 7.024016zm17.92205 1.3466781c-.708628-.780634-1.938158-1.5832339-4.07081-1.5832339-3.267472 0-4.42597 1.9127222-4.42597 3.4756798 0 1.561268.947094 2.67308 2.837898 3.1461915l1.8722.4494559c.735689.1672787 1.090849.5457679 1.090849 1.0188794 0 .7096673-.686643 1.0645009-1.659105 1.0645009-1.351299 0-2.273024-.7333228-2.888634-1.3956789l-1.632045 1.7032014c.686643.849911 2.081914 1.8180999 4.402293 1.8180999 3.527922 0 4.68642-1.7471332 4.68642-3.4503346 0-1.5629576-.921724-2.7220808-3.07467-3.1951923l-1.801169-.4258003c-.686643-.1419335-.996139-.5204227-.996139-1.0171897 0-.5694235.475238-1.042535 1.469686-1.042535 1.067171 0 1.96691.4731115 2.604506 1.1135017zm6.58399 1.0628111h2.413397v-2.4094892h-2.413397v-3.0752247l-2.863266.4494559v2.6257688l-1.965218.2365557v2.1729335h1.965218v5.2312615c0 1.961723.850693 3.4030234 3.076362 3.4030234.80503 0 1.750432-.1419335 2.29501-.3548337l-.047354-2.480456c-.402515.1182779-.898048.1892446-1.276885.1892446-.757675 0-1.183867-.3548336-1.183867-1.1591231zm9.731384 6.20114c-1.564395 0-2.369424-.8769459-2.440456-2.2979701h6.511266c.118387-.4477662.189419-1.2757114.189419-1.8654111 0-2.3452812-1.253207-4.6838038-4.568034-4.6838038-3.338504 0-5.017903 2.5750783-5.017903 5.6283372 0 3.2898145 1.58469 5.6519927 5.325708 5.6519927 1.730137 0 3.172763-.7316332 3.999778-1.5595783l-1.347916-1.8687904c-.803338.6640458-1.7758.9952238-2.651862.9952238zm-2.416779-4.3289702c.071032-1.2317795.686643-2.2270034 2.108974-2.2270034 1.018125 0 1.919555.5930791 1.919555 1.8721698 0 .0709667-.023677.2129002-.047354.3548336zm9.213865 6.5019037h2.861575v-7.5934395c.544579-.4258003 1.207544-.8042895 2.108974-.8042895 1.018125 0 1.633736.4494559 1.990587 1.0408453v7.3568837h2.861575v-7.5934395c.44987-.4258003 1.207544-.8042895 2.180006-.8042895 1.325931 0 1.801169.6150449 1.801169 1.6558902v6.7418388h2.885252v-6.9783945c0-2.6240792-1.134821-4.041724-3.857714-4.041724-1.895878 0-3.150777.8262555-3.74271 1.5832339-.661274-.9208778-1.561013-1.5832339-3.289458-1.5832339-1.517041 0-2.440457.7569784-3.03239 1.464956v-1.2284002h-2.766866zm27.77013-9.4368846c-.71032-.780634-1.93985-1.5832339-4.07081-1.5832339-3.267472 0-4.427662 1.9127222-4.427662 3.4756798 0 1.561268.947094 2.67308 2.839589 3.1461915l1.872201.4494559c.733997.1672787 1.089157.5457679 1.089157 1.0188794 0 .7096673-.686643 1.0645009-1.657413 1.0645009-1.351299 0-2.274715-.7333228-2.888635-1.3956789l-1.633736 1.7032014c.686643.849911 2.081914 1.8180999 4.402293 1.8180999 3.527923 0 4.688112-1.7471332 4.688112-3.4503346 0-1.5629576-.923416-2.7220808-3.076362-3.1951923l-1.801169-.4258003c-.686642-.1419335-.994448-.5204227-.994448-1.0171897 0-.5694235.473547-1.042535 1.469686-1.042535 1.06548 0 1.965219.4731115 2.604507 1.1135017z"/></g></g></svg>