<svg viewBox="0 0 333.93872 334.00339" xmlns="http://www.w3.org/2000/svg" xmlns:xlink="http://www.w3.org/1999/xlink"><linearGradient id="a"><stop offset="0" stop-color="#999"/><stop offset="1" stop-color="#fff"/></linearGradient><linearGradient id="b"><stop offset="0" stop-color="#5da74a"/><stop offset=".8673" stop-color="#0a0e08"/><stop offset=".9606" stop-color="#7a9870"/><stop offset="1" stop-color="#99b592"/></linearGradient><linearGradient id="c" gradientUnits="userSpaceOnUse" x2="0" xlink:href="#b" y1="43.54" y2="36.771"/><linearGradient id="d" gradientTransform="matrix(0 1 -1 0 651.43 -80.719)" gradientUnits="userSpaceOnUse" x1="141.48" x2="170.67" xlink:href="#b"/><linearGradient id="e" gradientTransform="matrix(0 1 -1 0 675.96 -89.597)" gradientUnits="userSpaceOnUse" x1="153.71" x2="191.85" xlink:href="#b"/><linearGradient id="f" gradientTransform="matrix(0 1 -1 0 744.26 -71.296)" gradientUnits="userSpaceOnUse" x1="194.35" x2="201.21" xlink:href="#b"/><linearGradient id="g" gradientTransform="matrix(0 1 -1 0 775.61 -39.949)" gradientUnits="userSpaceOnUse" x1="194.35" x2="201.21" xlink:href="#b"/><linearGradient id="h" gradientUnits="userSpaceOnUse" x2="0" xlink:href="#b" y1="127.04" y2="292.77"/><radialGradient id="i" cx="100.75" cy="40.156" gradientTransform="matrix(.35628 -.09547 .09547 .35628 61.021 35.467)" gradientUnits="userSpaceOnUse" r="2.75" spreadMethod="reflect" xlink:href="#a"/><radialGradient id="j" cx="102.86" cy="42.801" gradientTransform="matrix(1.9933 -1.1508 1.1508 1.9933 -146.29 76.06)" gradientUnits="userSpaceOnUse" r="2.75" spreadMethod="reflect" xlink:href="#a"/><radialGradient id="k" cx="1804.3" cy="716.35" gradientTransform="matrix(.77821 0 .00000043 1.6024 -1238.8 -1049.2)" gradientUnits="userSpaceOnUse" r="38.766" spreadMethod="reflect" xlink:href="#b"/><radialGradient id="l" cx="1800.3" cy="749.75" gradientTransform="matrix(.99633 0 0 1.1739 -1272.1 -713.12)" gradientUnits="userSpaceOnUse" r="96.258" spreadMethod="reflect" xlink:href="#b"/><radialGradient id="m" cx="524.58" cy="164.33" gradientTransform="matrix(1 0 0 1.207 0 -34.956)" gradientUnits="userSpaceOnUse" r="98.266" xlink:href="#b"/><radialGradient id="n" cx="1739.2" cy="678.82" gradientTransform="matrix(1.1396 -.30537 .41126 1.5348 -2173 -363.5)" gradientUnits="userSpaceOnUse" r="67.753" xlink:href="#b"/><radialGradient id="o" cx="1801.2" cy="729.8" gradientTransform="matrix(1.1267 -.08079 .11726 1.6353 -1949.1 -908.36)" gradientUnits="userSpaceOnUse" r="38.766" spreadMethod="reflect" xlink:href="#b"/><path d="m242.03 166.68s-47.803 1.6623-68.747 8.6026c-25.32 8.3905-46.75 23.24-58.726 33.631-16.632 14.431-32.264 45.101-32.264 45.101l7.7201 7.5584-.04187.0779 4.4469.38961s.97698-1.4565 2.3589-3.4597l12.13 13.309 10.579 8.8675 3.6322.45195.0145.0312 36.567 4.6442.0168-.0312 6.5875.82597 7.475-.82597-.0168.0312 41.527-4.6442.0396-.0156 4.1574-.46753 20.077-8.8675 37.102-18.686 16.024-15.631.77354-15.631-17.023-18.686-10.548-8.8675-8.1332-.85714c-.0273-.0353-.0381-.074-.0664-.10909l3.5178.37402-3.5697-.45194-.0374-.0468h-.34375l-4.3861-.56104-1.4985-2.213c.12123-.0584.25336-.11249.37336-.17143l2.5706-4.7844c.66429-1.232 1.7042-3.1874 3.1903-5.9377l2.6446-.32727 2.6871-3.8961h.0625l-.0457-.0312h-.0313l-20.796-8.6961zm-51.068 20.135c-.017.016-.0397.0308-.0564.0468l-8.8067 5.0494h-4.9375l-.54247.31169c-.92735.40757-1.7886.83019-2.5845 1.2623l-2.8237.31169 2.7361-.26493-.18362.10909-.72099.0623-4.8762.46753c.80175-.34746 1.5904-.68337 2.3484-.9974 8.3389-3.4545 15.43-6.1867 20.448-6.3584zm62.03 6.1091 3.5178.37402h-.96875l-2.4827-.26493-.0664-.10909zm-72.696.0156-.14399.0935-.10212.0156c.0777-.038.16718-.0713.24611-.10909z" fill="#0c1109" opacity=".5"/><path d="m199.98 71.677-15.406 4.0625c-5.0236-2.3177-11.372-3.7188-18.281-3.7188-8.0521 0-15.346 1.8915-20.656 4.9375-4.3661 2.5045-7.4321 5.8151-8.375 9.5625l-7.4374 12.375-13.531 2.7188-15.312 17.781-27.062 37.469-7.625 31.344 7.625 31.344 7.8125 10.812c1.436-16.604 5.8646-60.877 14.031-84.25 4.935-14.123 26.168-38.04 37.813-50.5-.053-.0615-.1037-.12568-.1563-.1875.373-.39934.5818-.5898.9375-.96875.049.054.107.10244.1562.15625 4.0836-4.3477 6.8438-7.1562 6.8438-7.1562l-1.9688 11.625c4.3427 3.3564 9.4178 5.9159 15 7.4062l.1563-5.0938c2.506-20.29 18.658-21.628 32.625-26l12.812-3.375v-.34375z" fill="#0c1109"/><g fill="#0b0f09" stroke="#000" stroke-linecap="round" stroke-linejoin="round" transform="translate(-1634 -539.1)"><path d="m1871 669.39-32.442-17.757-11.208 15.522 22.94 30.915 20.711-28.68"/><path d="m1850.3 698.07-22.94-30.915-27.06 6.4293v36.365l50-11.88"/><path d="m1800.3 709.95v-36.365l-27.06-6.4293-22.94 30.915 50 11.88"/><path d="m1750.3 698.07 22.94-30.915-11.208-15.522-32.442 17.757 20.711 28.68"/><path d="m1729.6 669.39 32.442-17.757 11.208-15.522-22.94 4.599-20.711 28.68"/><path d="m1850.3 640.71-22.94-4.599 11.208 15.522 32.442 17.757-20.711-28.68"/><path d="m1871 669.39-32.442-17.757z"/><path d="m1871 669.39-32.442-17.757z"/><path d="m1871 669.39 21.677 26.575-27.06 37.471-15.328-35.367 20.711-28.68"/><path d="m1850.3 698.07 15.328 35.367-65.328 15.521v-39.009z"/><path d="m1800.3 709.95v39.009l-65.328-15.521 15.328-35.367z"/><path d="m1750.3 698.07-15.328 35.367-27.06-37.471 21.677-26.575 20.711 28.68"/><path d="m1729.6 669.39-21.677 26.575 27.06-37.471 15.328-17.783-20.711 28.68"/><path d="m1850.3 640.71 15.328 17.783 27.06 37.471-21.677-26.575-20.711-28.68"/><path d="m1871 669.39 21.677 26.575z"/><path d="m1871 669.39 21.677 26.575z"/><path d="m1900.3 727.31-7.612-31.348-27.06 37.471 5.3825 34.435 29.289-40.559"/><path d="m1871 767.87-5.3825-34.435-65.328 15.521v35.714l70.711-16.8"/><path d="m1800.3 784.67v-35.714l-65.328-15.521-5.3825 34.435 70.711 16.8"/><path d="m1729.6 767.87 5.3825-34.435-27.06-37.471-7.612 31.348 29.289 40.559"/><path d="m1900.3 727.31-7.612-31.348z"/><path d="m1900.3 727.31-7.612-31.348z"/><path d="m1900.3 727.31-7.612 31.348-27.06 37.471 5.3825-28.26 29.289-40.559"/><path d="m1871 767.87-5.3825 28.26-65.328 15.521v-26.982l70.711-16.8"/><path d="m1800.3 784.67v26.982l-65.328-15.521-5.3825-28.26 70.711 16.8"/><path d="m1729.6 767.87 5.3825 28.26-27.06-37.471-7.612-31.348 29.289 40.559"/><path d="m1900.3 727.31-7.612 31.348z"/><path d="m1900.3 727.31-7.612 31.348z"/><path d="m1850.3 813.92 15.328-17.783-65.328 15.521v14.142z"/><path d="m1800.3 825.8v-14.142l-65.328-15.521 15.328 17.783z"/></g><g fill="url(#m)" transform="translate(-355.29 46.053)"><path d="m546.96 85.014-22.501 5.5682v31.609l41.556-10.333-19.055-26.844z"/><path d="m560.91 68.812-10.062 13.969 20.625 27.812 18.656-25.812z"/><path d="m494.72 84.125-20.625 27.844 45 10.688v-32.719l-24.375-5.8125z"/><path d="m482.25 68.812-29.188 15.969 18.625 25.812 20.656-27.812-10.094-13.969z"/><path d="m492.34 52.625-20.656 4.125-18.625 25.812 29.188-15.969 10.094-13.969z"/><path d="m550.84 52.625 10.062 13.969 29.219 15.969-18.656-25.812-20.625-4.125z"/><path d="m592.34 87.438-18.625 25.812 13.781 31.844 24.344-33.75z"/><path d="m569.84 115.47-45 10.688v35.094l58.812-13.969-13.812-31.812z"/><path d="m473.31 115.47-13.781 31.812 58.781 13.969v-35.094l-45-10.688z"/><path d="m452.31 87.688-19.5 23.906 24.344 33.75 13.812-31.844z"/><path d="m469.47 58.312-13.812 16-24.344 33.75 19.5-23.938z"/><path d="m613 114.41-24.344 33.719 4.8438 31 26.344-36.5z"/><path d="m583.91 150.84-58.781 13.969v32.156l63.625-15.125-4.8438-31z"/><path d="m459.25 150.84-4.8438 31 63.656 15.125v-32.156l-58.812-13.969z"/><path d="m430.16 114.41-6.8438 28.219 26.375 36.5 4.8438-31z"/><path d="m619.84 145.59-26.344 36.5-4.8438 25.438 24.344-33.719z"/><path d="m588.75 184.91-63.625 15.125v24.281l58.781-13.969 4.8438-25.438z"/><path d="m454.41 184.91 4.8438 25.438 58.812 13.969v-24.281l-63.656-15.125z"/><path d="m423.31 145.59 6.8438 28.219 24.375 33.719-4.8438-25.438z"/><path d="m583.66 212.47-58.812 13.969v12.719l45-10.688z"/><path d="m459.53 212.47 13.781 16 45 10.688v-12.719z"/><path d="m575.47 58.622 12.517 14.522 22.097 30.599-17.702-21.701z"/></g><g transform="translate(-355.29 46.053)"><path d="m590.67 83.347-29.198-15.981z" fill="url(#d)"/><path d="m590.67 83.347-29.198-15.981z" fill="url(#d)"/><path d="m573.71 58.318 13.795 16.005 24.354 33.724-19.51-23.918-18.64-25.812" fill="url(#e)"/><path d="m621.21 140.59-6.8508-28.213z" fill="url(#f)"/><path d="m621.21 140.59-6.8508-28.213z" fill="url(#f)"/><path d="m621.21 143.72-6.8508 28.213z" fill="url(#g)"/><path d="m621.21 143.72-6.8508 28.213z" fill="url(#g)"/><path d="m467.22 63.735-11.981 13.899-21.147 29.267 16.938-20.748 16.19-22.417z" fill="url(#l)"/><g fill-opacity=".3"><g><path d="m524.09 89.938 2.8647 3.8334v28.42l-2.8647.46504v-32.719" fill="#4c883d"/><path d="m524.09 122.66 2.8647-.46504 39.056-9.2908 3.0793-.93167-45 10.688" fill="#070c06"/><path d="m569.09 111.97-3.0793.93167-17.909-24.136.33201-4.6394 20.656 27.844" fill="#131e0f"/><path d="m548.44 84.125-.33201 4.6394z"/><path d="m548.44 84.125-.33201 4.6394z"/></g><g><path d="m495.08 88.764-.35724-4.6394-20.625 27.844 3.0484.93167 17.934-24.136" fill="#4c883d"/><path d="m477.14 112.9-3.0484-.93167 45 10.688-2.8956-.46504-39.056-9.2908" fill="#070c06"/><path d="m516.2 122.19 2.8956.46504v-32.719l-2.8956 3.8334v28.42" fill="#131e0f"/></g><g><path d="m528.61 227.98-3.7679-1.5449v12.719l3.7679-.13947v-11.034" fill="#4c883d"/><path d="m528.61 239.02-3.7679.13947 45-10.688-2.176 1.2573-39.056 9.2907" fill="#070c06"/><path d="m567.67 229.73 2.176-1.2573 13.812-16-4.0076 3.3835-11.981 13.874" fill="#4c883d"/></g><g><path d="m525.12 200.03 4.0719 2.3052v21.072l-4.0719.90376v-24.281" fill="#4c883d"/><path d="m525.12 224.31 4.0719-.90376 51.037-12.13 3.6724-.93467-58.781 13.969" fill="#070c06"/><path d="m583.91 210.34-3.6724.93467 4.1846-22.069 4.3316-4.3035-4.8438 25.438" fill="#131e0f"/></g><g><path d="m529.2 167.82-4.0719-3.0074v32.156l4.0719-1.2517v-27.897" fill="#4c883d"/><path d="m529.2 195.72-4.0719 1.2517 63.625-15.125-4.3316.74669-55.222 13.127" fill="#070c06"/><path d="m584.42 182.59 4.3316-.74669-4.8438-31-3.6724 4.8459 4.1846 26.901" fill="#131e0f"/></g><g><path d="m528.61 129.7-3.7679-3.5479v35.094l3.7679-1.0831z" fill="#4c883d"/><path d="m528.61 160.17-3.7679 1.0831 58.812-13.969-4.0077.78024-51.037 12.105" fill="#070c06"/><path d="m579.65 148.06 4.0077-.78024-13.812-31.812-2.1761 4.9695 11.981 27.623" fill="#131e0f"/></g><g><path d="m475.49 120.44-2.1793-4.9695-13.781 31.812 4.0046.78023 11.956-27.623" fill="#4c883d"/><path d="m463.54 148.06-4.0046-.78023 58.781 13.969-3.7647-1.0832-51.012-12.105" fill="#070c06"/><path d="m514.55 160.17 3.7647 1.0832v-35.094l-3.7647 3.5479v30.463" fill="#131e0f"/></g><g><path d="m462.95 155.69-3.7006-4.8459-4.8438 31 4.3348.74669 4.2096-26.901" fill="#4c883d"/><path d="m458.74 182.59-4.3348-.74669 63.656 15.125-4.075-1.2517-55.246-13.127" fill="#070c06"/><path d="m513.99 195.72 4.075 1.2517v-32.156l-4.075 3.0074v27.897" fill="#131e0f"/></g><g><path d="m454.41 184.91 4.3348 4.3035 4.2096 22.069-3.7006-.93467-4.8438-25.438" fill="#4c883d"/><path d="m459.25 210.34 3.7006.93467 51.037 12.13 4.075.90376-58.812-13.969" fill="#070c06"/><path d="m518.06 224.31-4.075-.90376v-21.072l4.075-2.3052v24.281" fill="#131e0f"/></g><g><path d="m463.54 215.85-4.0046-3.3835 13.781 16 2.1793 1.2573-11.956-13.874" fill="#4c883d"/><path d="m475.49 229.73-2.1793-1.2573 45 10.688-3.7646-.13947-39.056-9.2907" fill="#070c06"/><path d="m514.55 239.02 3.7646.13947v-12.719l-3.7646 1.5448v11.034" fill="#131e0f"/></g><g><path d="m482.25 68.812-1.0612 2.8565-25.371 11.881-2.755 1.2311 29.188-15.969"/><path d="m482.25 68.812-1.0612 2.8565z"/></g><path d="m423.68 145.08-.36294-2.4537 26.375 36.5-3.1214-2.3631-22.891-31.683" fill="#040503"/><g><path d="m471.69 56.75.32043-.36843-16.19 22.417-2.755 3.7636 18.625-25.812"/><path d="m492.34 52.625-2.4268.1698z"/><path d="m492.34 52.625-2.4268.1698z"/></g><g><path d="m593.5 182.09 1.1183 1.0789-4.2094 22.069-1.7527 2.29 4.8438-25.438" fill="#4c883d"/><path d="m588.66 207.53 1.7527-2.29 21.122-29.267 1.4689-2.1616-24.344 33.719"/><path d="m613 173.81-1.4689 2.1616 5.953-24.485 2.3596-5.8957-6.8438 28.219"/></g><g><path d="m588.66 148.12 3.7526 1.7361 4.2094 26.901-3.1182 2.3631-4.8438-31" fill="#4c883d"/><path d="m593.5 179.12 3.1182-2.3631 22.866-31.683.35972-2.4537-26.344 36.5" fill="#070c06"/><path d="m619.84 142.62-.35972 2.4537-5.953-24.485-.53098-6.1877 6.8438 28.219"/></g><g><path d="m573.72 113.25 4.2495.41213 11.981 27.648-2.4491 3.7836-13.781-31.844" fill="#4c883d"/><path d="m587.5 145.09 2.4491-3.7836 21.122-29.292.77251-.67444-24.344 33.75" fill="#070c06"/></g><g><path d="m553.24 81.807-2.3958.9747 20.625 27.812-.2953-4.6511-17.934-24.136" fill="#4c883d"/><path d="m571.17 105.94.2953 4.6511 18.656-25.812-2.786-1.2311-16.166 22.392" fill="#070c06"/><path d="m587.34 83.55 2.786 1.2311-29.219-15.969 1.0863.86381 25.346 13.874"/></g><g><path d="m562.01 64.94-1.101 1.654 29.219 15.969-2.786-3.7489-25.332-13.874" fill="#4c883d"/><path d="m587.34 78.814 2.786 3.7489-18.656-25.812-.2953-.35374 16.166 22.417" fill="#0e190c"/><path d="m571.17 56.396.2953.35374-20.625-4.125 2.3958.18449 17.934 3.5868"/></g><g><path d="m449.03 91.27 3.2867-3.5822-19.5 23.906-.72428.42444 16.938-20.748" fill="#4c883d"/><path d="m432.09 112.02.72428-.42444 24.344 33.75-3.921-4.0336-21.147-29.292" fill="#070c06"/><path d="m453.24 141.31 3.921 4.0336 13.812-31.844-5.7526.16213-11.981 27.648" fill="#131e0f"/><path d="m449.03 91.27 3.2867-3.5822z"/><path d="m449.03 91.27 3.2867-3.5822z"/></g><g><path d="m429.63 120.59.52776-6.1877-6.8438 28.219.36294 2.4537 5.953-24.485" fill="#4c883d"/><path d="m423.68 145.08-.36294-2.4537 26.375 36.5-3.1214-2.3631-22.891-31.683" fill="#070c06"/><path d="m446.57 176.76 3.1214 2.3631 4.8438-31-3.7557 1.7361-4.2095 26.901" fill="#131e0f"/><path d="m429.63 120.59.52776-6.1877z"/><path d="m429.63 120.59.52776-6.1877z"/></g><g><path d="m425.68 151.49-2.363-5.8957 6.8438 28.219 1.4723 2.1616-5.953-24.485" fill="#4c883d"/><path d="m452.78 205.24 1.7556 2.29-4.8438-25.438-1.1214 1.0789 4.2095 22.069" fill="#131e0f"/><path d="m425.68 151.49-2.363-5.8957z"/><path d="m425.68 151.49-2.363-5.8957z"/></g><g><path d="m482.25 68.812-1.0612 2.8565-25.371 11.881-2.755 1.2311 29.188-15.969" fill="#4c883d"/><path d="m453.06 84.781 2.755-1.2311 16.19 22.392-.32043 4.6511-18.625-25.812" fill="#070c06"/><path d="m471.69 110.59.32043-4.6511 17.909-24.136 2.4268.9747-20.656 27.812" fill="#131e0f"/></g><g><path d="m492.34 52.625-2.4268.1698-17.909 3.5868-.32043.36843 20.656-4.125" fill="#e6e6e6"/><path d="m471.69 56.75.32043-.36843-16.19 22.417-2.755 3.7636 18.625-25.812" fill="#e6e6e6"/><path d="m453.06 82.562 2.755-3.7636 25.357-13.874 1.0759 1.6687-29.188 15.969" fill="#233b1c"/></g><g><path d="m451.03 86.152-.21328-2.0272 18.656-25.812-2.2526 5.4224-16.19 22.417" fill="#4c883d"/><path d="m434.09 106.9-2.7757 1.1618 19.5-23.938.21328 2.0272-16.938 20.748" fill="#131e0f"/><path d="m467.22 63.735 2.2526-5.4224z"/><path d="m467.22 63.735 2.2526-5.4224z"/></g></g><g fill="url(#h)" stroke-opacity=".6" stroke-width="2"><path d="m610.09 103.74 1.7678 4.3044-19.51-23.918.0403-2.0878 17.702 21.701"/><path d="m548.44 84.125-.33201 4.6394-21.147 5.0065-2.8647-3.8334 24.344-5.8125"/><path d="m516.2 93.771 2.8956-3.8334-24.375-5.8125.35724 4.6394 21.122 5.0065"/><path d="m579.65 215.85 4.0076-3.3835-58.812 13.969 3.7679 1.5449 51.037-12.13"/><path d="m588.75 184.91-4.3316 4.3035-55.222 13.127-4.0719-2.3052 63.625-15.125"/><path d="m580.23 155.69 3.6724-4.8459-58.781 13.969 4.0719 3.0074 51.037-12.13"/><path d="m567.67 120.44 2.1761-4.9695-45 10.688 3.7679 3.5479 39.056-9.2658"/><path d="m514.55 129.7 3.7647-3.5479-45-10.688 2.1793 4.9695 39.056 9.2658"/><path d="m513.99 167.82 4.075-3.0074-58.812-13.969 3.7006 4.8459 51.037 12.13"/><path d="m518.06 200.03-4.075 2.3052-55.246-13.127-4.3348-4.3035 63.656 15.125"/><path d="m514.55 227.98 3.7646-1.5448-58.781-13.969 4.0046 3.3835 51.012 12.13"/><path d="m619.84 145.59-2.3596 5.8957-22.866 31.683-1.1183-1.0789 26.344-36.5"/><path d="m613 114.41.53098 6.1877-21.122 29.267-3.7526-1.7361 24.344-33.719"/><path d="m592.34 87.438 1.7899 3.8322-16.165 22.392-4.2495-.41213 18.625-25.812"/><path d="m561.99 69.676-1.0863-.86381-10.062 13.969 2.3958-.9747 8.753-12.13"/><path d="m553.24 52.809-2.3958-.18449 10.062 13.969 1.101-1.654-8.7677-12.13"/><path d="m465.22 113.66 5.7526-.16213-18.656-25.812-3.2867 3.5822 16.19 22.392"/><path d="m450.78 149.86 3.7557-1.7361-24.375-33.719-.52776 6.1877 21.147 29.267"/><path d="m448.57 183.17 1.1214-1.0789-26.375-36.5 2.363 5.8957 22.891 31.683"/><path d="m492.34 82.781-2.4268-.9747-8.7281-10.138 1.0612-2.8565 10.094 13.969"/><path d="m482.25 66.594-1.0759-1.6687 8.7428-12.13 2.4268-.1698-10.094 13.969"/><path d="m592.39 82.042-.0403 2.0878-18.64-25.812 1.7678.30437 16.912 23.42"/></g></g><path d="m202.34 99.428c3.9752 5.2228 4.2218 12.858.36057 18.223-5.7481 8.1721-15.643 12.095-25.129 13.937-13.336 2.3333-27.784.97769-39.669-5.8476-6.3791-3.6627-12.335-10.218-11.671-18.06-.169-2.7848 2.323-6.5444 2.7002-8.028l-5.7793 1.5255c-3.6475 6.1698-2.7868 14.339 1.7162 19.85 6.7848 8.6237 17.674 12.767 28.16 14.707 14.699 2.4456 30.516.98137 43.726-6.265 7.22-4.0228 14.062-10.921 14.085-19.699-.10594-3.613-1.1902-8.001-3.7962-10.344h-4.7038z"/><path d="m166.27 72.036c-8.0521 0-15.337 1.8826-20.647 4.9286-4.3663 2.5045-7.416 5.8101-8.3587 9.5575l-7.6594 12.754c-1.7971 1.9994-3.0991 4.1622-3.863 6.4605l-.033.0666c-.4769 1.4581-.7326 2.9816-.7326 4.529 0 6.7105 4.707 12.726 12.188 17.017s17.762 6.9267 29.105 6.9267 21.624-2.6354 29.106-6.9267 12.222-10.307 12.222-17.017c0-1.5474-.25299-3.0709-.7327-4.529l-.033-.0666c-.7601-2.2742-2.0551-4.4119-3.8297-6.3939l-7.6926-12.821c-.9428-3.7474-3.9927-7.053-8.3586-9.5575-5.3104-3.046-12.628-4.9286-20.68-4.9286z" fill="url(#o)"/><path d="m199.98 71.677-58.625 15.406s-3.362 3.4455-7.9375 8.3438c1.0594 1.245 2.1926 2.4236 3.4063 3.5312 7.4812 6.8276 17.75 11.031 29.094 11.031s21.612-4.2037 29.094-11.031c1.8215-1.6623 3.5012-3.4737 4.9688-5.4375v-21.844z" fill="url(#k)"/><path d="m103.5 40.156c0 1.5188-1.2312 2.75-2.75 2.75s-2.75-1.2312-2.75-2.75 1.2312-2.75 2.75-2.75 2.75 1.2312 2.75 2.75z" fill="url(#c)" transform="matrix(1.9204 0 0 -1.8409 -12.432 157.94)"/><path d="m103.5 40.156c0 1.5188-1.2312 2.75-2.75 2.75s-2.75-1.2312-2.75-2.75 1.2312-2.75 2.75-2.75 2.75 1.2312 2.75 2.75z" fill="url(#i)" transform="matrix(0 1.3748 -1.3748 0 237.79 -54.049)"/><path d="m103.5 40.156c0 1.5188-1.2312 2.75-2.75 2.75s-2.75-1.2312-2.75-2.75 1.2312-2.75 2.75-2.75 2.75 1.2312 2.75 2.75z" fill="url(#j)" transform="matrix(.88462 0 0 .88462 93.46 48.936)"/><path d="m199.98 71.677-15.406 4.0625c-5.0236-2.3177-11.372-3.7188-18.281-3.7188-8.0521 0-15.346 1.8915-20.656 4.9375-4.3661 2.5045-7.4321 5.8151-8.375 9.5625l-7.4374 12.375-13.531 2.7188-15.312 17.781-7.9375 11c-10.217 21.673-19.402 52.199-24.062 68.812l4.9375 20.344 9.0625 12.531c5.2927-15.04 22.272-61.757 37.219-85.969 8.7192-14.123 36.36-38.04 58.936-68.617s20.763 40.391 20.846-5.8204z" opacity=".5"/><path d="m177.56 46.053s-46.915 3.3361-64.13 17.253c-20.812 16.825-34.248 46.602-40.64 67.438-8.8781 28.938-8.0571 90.449-8.0571 90.449l11.934 15.335s4.6366-66.755 15.219-97.044c7.1601-20.494 18.822-46.622 38.909-58.991 18.885-11.629 72.339-16.954 72.339-16.954z" fill="url(#n)"/><path d="m203.04 63.49s-53.478 3.3086-72.375 14.938c-20.086 12.36-31.747 34.483-38.906 54.969-10.588 30.3-15.25 103.09-15.25 103.09l4.6563.78125s4.4441-70.108 14.594-99.156c4.9349-14.123 16.168-30.04 24.501-38.944s15.274-15.433 21.093-11.712c3.3111 2.1173-1.9688 11.625-1.9688 11.625 4.3426 3.3564 9.4177 5.9159 15 7.4062l.15631-5.0938c2.506-20.29 18.658-21.628 32.625-26l15.281-4.0312z" fill="#0c1109"/></svg>